%FSLAX25Y25*%
%MOIN*%
G70*
G01*
G75*
G04 Layer_Color=32896*
%ADD10R,0.03543X0.02756*%
%ADD11R,0.02756X0.03543*%
%ADD12R,0.03543X0.03150*%
%ADD13R,0.05906X0.05906*%
%ADD14R,0.08858X0.01969*%
%ADD15O,0.08858X0.01969*%
%ADD16C,0.01969*%
%ADD17C,0.00394*%
%ADD18R,0.05906X0.05906*%
%ADD19C,0.05906*%
%ADD20O,0.03937X0.07874*%
%ADD21O,0.03937X0.07874*%
%ADD22C,0.03150*%
%ADD23C,0.00787*%
%ADD24C,0.00984*%
%ADD25C,0.00591*%
%ADD26R,0.04343X0.03556*%
%ADD27R,0.03556X0.04343*%
%ADD28R,0.04343X0.03950*%
%ADD29R,0.06706X0.06706*%
%ADD30R,0.09658X0.02769*%
%ADD31O,0.09658X0.02769*%
%ADD32R,0.06706X0.06706*%
%ADD33C,0.06706*%
%ADD34O,0.04737X0.08674*%
%ADD35O,0.04737X0.08674*%
%ADD36C,0.03950*%
D17*
X397100Y265249D02*
Y263149D01*
X396051Y262100D01*
X395001Y263149D01*
Y265249D01*
X393951D02*
Y262100D01*
X392377D01*
X391852Y262625D01*
Y264724D01*
X392377Y265249D01*
X393951D01*
X390803D02*
Y262100D01*
X389229D01*
X388704Y262625D01*
Y264724D01*
X389229Y265249D01*
X390803D01*
X395001Y275224D02*
X395526Y275749D01*
X396575D01*
X397100Y275224D01*
Y273125D01*
X396575Y272600D01*
X395526D01*
X395001Y273125D01*
Y274174D01*
X396051D01*
X393951Y272600D02*
Y275749D01*
X391852Y272600D01*
Y275749D01*
X390803D02*
Y272600D01*
X389229D01*
X388704Y273125D01*
Y275224D01*
X389229Y275749D01*
X390803D01*
X395526Y286249D02*
X396575D01*
X397100Y285724D01*
Y283625D01*
X396575Y283100D01*
X395526D01*
X395001Y283625D01*
Y285724D01*
X395526Y286249D01*
X391852D02*
X393951D01*
Y283100D01*
X391852D01*
X393951Y284674D02*
X392902D01*
X397100Y295649D02*
Y292500D01*
X395001D01*
X391852Y295649D02*
X393951D01*
Y292500D01*
X391852D01*
X393951Y294074D02*
X392902D01*
X390803Y295649D02*
Y292500D01*
X389229D01*
X388704Y293025D01*
Y295124D01*
X389229Y295649D01*
X390803D01*
X395001Y304824D02*
X395526Y305349D01*
X396575D01*
X397100Y304824D01*
Y302725D01*
X396575Y302200D01*
X395526D01*
X395001Y302725D01*
Y303774D01*
X396051D01*
X393951Y302200D02*
Y305349D01*
X391852Y302200D01*
Y305349D01*
X390803D02*
Y302200D01*
X389229D01*
X388704Y302725D01*
Y304824D01*
X389229Y305349D01*
X390803D01*
X325474Y265249D02*
X326524D01*
X327049Y264724D01*
Y262625D01*
X326524Y262100D01*
X325474D01*
X324950Y262625D01*
Y264724D01*
X325474Y265249D01*
X323900D02*
Y262625D01*
X323375Y262100D01*
X322326D01*
X321801Y262625D01*
Y265249D01*
X320751D02*
X318652D01*
X319702D01*
Y262100D01*
X321801Y275224D02*
X322326Y275749D01*
X323375D01*
X323900Y275224D01*
Y274699D01*
X323375Y274174D01*
X322326D01*
X321801Y273650D01*
Y273125D01*
X322326Y272600D01*
X323375D01*
X323900Y273125D01*
X320751Y275224D02*
X320227Y275749D01*
X319177D01*
X318652Y275224D01*
Y274699D01*
X319177Y274174D01*
X319702D01*
X319177D01*
X318652Y273650D01*
Y273125D01*
X319177Y272600D01*
X320227D01*
X320751Y273125D01*
X321801Y286924D02*
X322326Y287449D01*
X323375D01*
X323900Y286924D01*
Y286399D01*
X323375Y285874D01*
X322326D01*
X321801Y285349D01*
Y284825D01*
X322326Y284300D01*
X323375D01*
X323900Y284825D01*
X318652Y284300D02*
X320751D01*
X318652Y286399D01*
Y286924D01*
X319177Y287449D01*
X320227D01*
X320751Y286924D01*
Y294124D02*
X321276Y294649D01*
X322326D01*
X322850Y294124D01*
Y293599D01*
X322326Y293074D01*
X321276D01*
X320751Y292549D01*
Y292025D01*
X321276Y291500D01*
X322326D01*
X322850Y292025D01*
X319702Y291500D02*
X318652D01*
X319177D01*
Y294649D01*
X319702Y294124D01*
X321801Y305324D02*
X322326Y305849D01*
X323375D01*
X323900Y305324D01*
Y304799D01*
X323375Y304274D01*
X322326D01*
X321801Y303749D01*
Y303225D01*
X322326Y302700D01*
X323375D01*
X323900Y303225D01*
X320751Y305324D02*
X320227Y305849D01*
X319177D01*
X318652Y305324D01*
Y303225D01*
X319177Y302700D01*
X320227D01*
X320751Y303225D01*
Y305324D01*
D23*
X307500Y259000D02*
X317500D01*
Y309000D01*
X307500Y259000D02*
Y309000D01*
X317500D01*
X398500D02*
X408500D01*
X398500Y259000D02*
Y309000D01*
X408500Y259000D02*
Y309000D01*
X398500Y259000D02*
X408500D01*
D25*
X317400Y310500D02*
Y313649D01*
X315826D01*
X315301Y313124D01*
Y312074D01*
X315826Y311549D01*
X317400D01*
X314251Y310500D02*
X313202D01*
X313727D01*
Y313649D01*
X314251Y313124D01*
X403800Y310400D02*
Y313549D01*
X402226D01*
X401701Y313024D01*
Y311974D01*
X402226Y311450D01*
X403800D01*
X398552Y310400D02*
X400651D01*
X398552Y312499D01*
Y313024D01*
X399077Y313549D01*
X400127D01*
X400651Y313024D01*
M02*
