%FSLAX25Y25*%
%MOIN*%
G70*
G01*
G75*
G04 Layer_Color=8388736*
%ADD10R,0.03543X0.02756*%
%ADD11R,0.02756X0.03543*%
%ADD12R,0.03543X0.03150*%
%ADD13R,0.05906X0.05906*%
%ADD14R,0.08858X0.01969*%
%ADD15O,0.08858X0.01969*%
%ADD16C,0.01969*%
%ADD17C,0.00394*%
%ADD18R,0.05906X0.05906*%
%ADD19C,0.05906*%
%ADD20O,0.03937X0.07874*%
%ADD21O,0.03937X0.07874*%
%ADD22C,0.03150*%
%ADD23C,0.00787*%
%ADD24C,0.00984*%
%ADD25C,0.00591*%
%ADD26R,0.04343X0.03556*%
%ADD27R,0.03556X0.04343*%
%ADD28R,0.04343X0.03950*%
%ADD29R,0.06706X0.06706*%
%ADD30R,0.09658X0.02769*%
%ADD31O,0.09658X0.02769*%
%ADD32R,0.06706X0.06706*%
%ADD33C,0.06706*%
%ADD34O,0.04737X0.08674*%
%ADD35O,0.04737X0.08674*%
%ADD36C,0.03950*%
D26*
X338500Y290047D02*
D03*
Y295953D02*
D03*
X395000Y283953D02*
D03*
Y278047D02*
D03*
X377000Y276453D02*
D03*
Y270547D02*
D03*
X330000Y290047D02*
D03*
Y295953D02*
D03*
D27*
X345547Y299000D02*
D03*
X351453D02*
D03*
X361042Y307500D02*
D03*
X355136D02*
D03*
X371453Y299000D02*
D03*
X365547D02*
D03*
X383453D02*
D03*
X377547D02*
D03*
X383453Y291500D02*
D03*
X377547D02*
D03*
X371453Y268500D02*
D03*
X365547D02*
D03*
X361042Y260000D02*
D03*
X355136D02*
D03*
X345547Y268500D02*
D03*
X351453D02*
D03*
D28*
X395000Y266744D02*
D03*
Y272256D02*
D03*
D29*
X325110Y307500D02*
D03*
X338890D02*
D03*
X325110Y260000D02*
D03*
X338890D02*
D03*
X390890D02*
D03*
X377110D02*
D03*
X390890Y307500D02*
D03*
X377110D02*
D03*
D30*
X348935Y291500D02*
D03*
D31*
Y286500D02*
D03*
Y281500D02*
D03*
Y276500D02*
D03*
X367243Y291500D02*
D03*
Y286500D02*
D03*
Y281500D02*
D03*
Y276500D02*
D03*
D32*
X312500Y304000D02*
D03*
X403500Y264000D02*
D03*
D33*
X312500Y294000D02*
D03*
Y284000D02*
D03*
Y274000D02*
D03*
Y264000D02*
D03*
X403500Y274000D02*
D03*
Y284000D02*
D03*
Y294000D02*
D03*
Y304000D02*
D03*
D34*
X335000Y280500D02*
D03*
X325000D02*
D03*
D35*
X330000D02*
D03*
D36*
X383500Y300600D02*
D03*
X325000Y307500D02*
D03*
X390890D02*
D03*
X390779Y260000D02*
D03*
X388800Y300600D02*
D03*
X390300Y277300D02*
D03*
X370200Y304200D02*
D03*
X341000Y285000D02*
D03*
X324000Y296000D02*
D03*
X376000Y285500D02*
D03*
X340000Y268500D02*
D03*
X318500Y297000D02*
D03*
X341500Y278500D02*
D03*
X367500Y264000D02*
D03*
X379559Y281559D02*
D03*
M02*
