%FSLAX25Y25*%
%MOIN*%
G70*
G01*
G75*
G04 Layer_Color=32768*
%ADD10R,0.03543X0.02756*%
%ADD11R,0.02756X0.03543*%
%ADD12R,0.03543X0.03150*%
%ADD13R,0.05906X0.05906*%
%ADD14R,0.08858X0.01969*%
%ADD15O,0.08858X0.01969*%
%ADD16C,0.01969*%
%ADD17C,0.00394*%
%ADD18R,0.05906X0.05906*%
%ADD19C,0.05906*%
%ADD20O,0.03937X0.07874*%
%ADD21O,0.03937X0.07874*%
%ADD22C,0.03150*%
%ADD23C,0.00787*%
%ADD24C,0.00984*%
%ADD25C,0.00591*%
%ADD26R,0.04343X0.03556*%
%ADD27R,0.03556X0.04343*%
%ADD28R,0.04343X0.03950*%
%ADD29R,0.06706X0.06706*%
%ADD30R,0.09658X0.02769*%
%ADD31O,0.09658X0.02769*%
%ADD32R,0.06706X0.06706*%
%ADD33C,0.06706*%
%ADD34O,0.04737X0.08674*%
%ADD35O,0.04737X0.08674*%
%ADD36C,0.03950*%
%ADD37C,0.01000*%
D17*
X336630Y293000D02*
X340370D01*
X338500Y291130D02*
Y294870D01*
X336335Y288276D02*
Y297724D01*
X340665Y288276D02*
Y297724D01*
X336335Y288276D02*
X340665D01*
X336335Y297724D02*
X340665D01*
X348500Y297130D02*
Y300870D01*
X346630Y299000D02*
X350370D01*
X343776Y301165D02*
X353224D01*
X343776Y296835D02*
X353224D01*
X343776D02*
Y301165D01*
X353224Y296835D02*
Y301165D01*
X358089Y305630D02*
Y309370D01*
X356219Y307500D02*
X359959D01*
X353365Y305335D02*
X362813D01*
X353365Y309665D02*
X362813D01*
Y305335D02*
Y309665D01*
X353365Y305335D02*
Y309665D01*
X368500Y297130D02*
Y300870D01*
X366630Y299000D02*
X370370D01*
X363776Y296835D02*
X373224D01*
X363776Y301165D02*
X373224D01*
Y296835D02*
Y301165D01*
X363776Y296835D02*
Y301165D01*
X380500Y297130D02*
Y300870D01*
X378630Y299000D02*
X382370D01*
X375776Y296835D02*
X385224D01*
X375776Y301165D02*
X385224D01*
Y296835D02*
Y301165D01*
X375776Y296835D02*
Y301165D01*
X380500Y289630D02*
Y293370D01*
X378630Y291500D02*
X382370D01*
X375776Y289335D02*
X385224D01*
X375776Y293665D02*
X385224D01*
Y289335D02*
Y293665D01*
X375776Y289335D02*
Y293665D01*
X393130Y281000D02*
X396870D01*
X395000Y279130D02*
Y282870D01*
X397165Y276276D02*
Y285724D01*
X392835Y276276D02*
Y285724D01*
X397165D01*
X392835Y276276D02*
X397165D01*
X375130Y273500D02*
X378870D01*
X377000Y271630D02*
Y275370D01*
X379165Y268776D02*
Y278224D01*
X374835Y268776D02*
Y278224D01*
X379165D01*
X374835Y268776D02*
X379165D01*
X368500Y266630D02*
Y270370D01*
X366630Y268500D02*
X370370D01*
X363776Y266335D02*
X373224D01*
X363776Y270665D02*
X373224D01*
Y266335D02*
Y270665D01*
X363776Y266335D02*
Y270665D01*
X393130Y269500D02*
X396870D01*
X395000Y267630D02*
Y271370D01*
X392835Y264776D02*
Y274224D01*
X397165Y264776D02*
Y274224D01*
X392835Y264776D02*
X397165D01*
X392835Y274224D02*
X397165D01*
X328031Y280500D02*
X331968D01*
X330000Y278532D02*
Y282469D01*
X328130Y293000D02*
X331870D01*
X330000Y291130D02*
Y294870D01*
X327835Y288276D02*
Y297724D01*
X332165Y288276D02*
Y297724D01*
X327835Y288276D02*
X332165D01*
X327835Y297724D02*
X332165D01*
X358089Y258130D02*
Y261870D01*
X356219Y260000D02*
X359959D01*
X353365Y257835D02*
X362813D01*
X353365Y262165D02*
X362813D01*
Y257835D02*
Y262165D01*
X353365Y257835D02*
Y262165D01*
X348500Y266630D02*
Y270370D01*
X346630Y268500D02*
X350370D01*
X343776Y270665D02*
X353224D01*
X343776Y266335D02*
X353224D01*
X343776D02*
Y270665D01*
X353224Y266335D02*
Y270665D01*
M02*
