%FSLAX25Y25*%
%MOIN*%
G70*
G01*
G75*
G04 Layer_Color=16711935*
%ADD10R,0.03543X0.02756*%
%ADD11R,0.02756X0.03543*%
%ADD12R,0.03543X0.03150*%
%ADD13R,0.05906X0.05906*%
%ADD14R,0.08858X0.01969*%
%ADD15O,0.08858X0.01969*%
%ADD16C,0.01969*%
%ADD17C,0.00394*%
%ADD18R,0.05906X0.05906*%
%ADD19C,0.05906*%
%ADD20O,0.03937X0.07874*%
%ADD21O,0.03937X0.07874*%
%ADD22C,0.03150*%
%ADD23C,0.00787*%
%ADD24C,0.00984*%
%ADD25C,0.00591*%
%ADD26R,0.04343X0.03556*%
%ADD27R,0.03556X0.04343*%
%ADD28R,0.04343X0.03950*%
%ADD29R,0.06706X0.06706*%
%ADD30R,0.09658X0.02769*%
%ADD31O,0.09658X0.02769*%
%ADD32R,0.06706X0.06706*%
%ADD33C,0.06706*%
%ADD34O,0.04737X0.08674*%
%ADD35O,0.04737X0.08674*%
%ADD36C,0.03950*%
%ADD37C,0.01000*%
D17*
X322205Y286405D02*
G03*
X337795Y286405I7795J-5906D01*
G01*
X336630Y289653D02*
Y296346D01*
X340370Y289653D02*
Y296346D01*
X336630Y289653D02*
X340370D01*
X336630Y296346D02*
X340370D01*
X345153Y300870D02*
X351847D01*
X345153Y297130D02*
X351847D01*
X345153D02*
Y300870D01*
X351847Y297130D02*
Y300870D01*
X354743Y305630D02*
X361435D01*
X354743Y309370D02*
X361435D01*
Y305630D02*
Y309370D01*
X354743Y305630D02*
Y309370D01*
X365154Y297130D02*
X371847D01*
X365154Y300870D02*
X371847D01*
Y297130D02*
Y300870D01*
X365154Y297130D02*
Y300870D01*
X377153Y297130D02*
X383846D01*
X377153Y300870D02*
X383846D01*
Y297130D02*
Y300870D01*
X377153Y297130D02*
Y300870D01*
Y289630D02*
X383846D01*
X377153Y293370D02*
X383846D01*
Y289630D02*
Y293370D01*
X377153Y289630D02*
Y293370D01*
X396870Y277654D02*
Y284347D01*
X393130Y277654D02*
Y284347D01*
X396870D01*
X393130Y277654D02*
X396870D01*
X378870Y270153D02*
Y276847D01*
X375130Y270153D02*
Y276847D01*
X378870D01*
X375130Y270153D02*
X378870D01*
X365154Y266630D02*
X371847D01*
X365154Y270370D02*
X371847D01*
Y266630D02*
Y270370D01*
X365154Y266630D02*
Y270370D01*
X393130Y266055D02*
Y272945D01*
X396870Y266055D02*
Y272945D01*
X393130Y266055D02*
X396870D01*
X393130Y272945D02*
X396870D01*
X322205Y286405D02*
X337795D01*
X328130Y289653D02*
Y296346D01*
X331870Y289653D02*
Y296346D01*
X328130Y289653D02*
X331870D01*
X328130Y296346D02*
X331870D01*
X354743Y258130D02*
X361435D01*
X354743Y261870D02*
X361435D01*
Y258130D02*
Y261870D01*
X354743Y258130D02*
Y261870D01*
X345153Y270370D02*
X351847D01*
X345153Y266630D02*
X351847D01*
X345153D02*
Y270370D01*
X351847Y266630D02*
Y270370D01*
M02*
