%FSLAX25Y25*%
%MOIN*%
G70*
G01*
G75*
G04 Layer_Physical_Order=1*
G04 Layer_Color=255*
%ADD10R,0.03543X0.02756*%
%ADD11R,0.02756X0.03543*%
%ADD12R,0.03543X0.03150*%
%ADD13R,0.05906X0.05906*%
%ADD14R,0.08858X0.01969*%
%ADD15O,0.08858X0.01969*%
%ADD16C,0.01969*%
%ADD17C,0.00394*%
%ADD18R,0.05906X0.05906*%
%ADD19C,0.05906*%
%ADD20O,0.03937X0.07874*%
%ADD21O,0.03937X0.07874*%
%ADD22C,0.03150*%
G36*
X402773Y271138D02*
X402644Y271164D01*
X402467Y271186D01*
X401972Y271224D01*
X399902Y271270D01*
X399346Y271272D01*
X398875Y273240D01*
X399168Y273252D01*
X399433Y273287D01*
X399672Y273346D01*
X399883Y273429D01*
X400067Y273536D01*
X400223Y273666D01*
X400353Y273819D01*
X400455Y273997D01*
X400530Y274198D01*
X400578Y274422D01*
X402773Y271138D01*
D02*
G37*
G36*
X378774Y277579D02*
X378815Y277336D01*
X378885Y277088D01*
X378982Y276837D01*
X379108Y276581D01*
X379261Y276321D01*
X379442Y276057D01*
X379650Y275789D01*
X379887Y275517D01*
X380152Y275240D01*
X378913Y273695D01*
X378506Y274088D01*
X377778Y274706D01*
X377457Y274930D01*
X377165Y275099D01*
X376900Y275211D01*
X376665Y275267D01*
X376458Y275267D01*
X376279Y275211D01*
X376129Y275099D01*
X378760Y277819D01*
X378774Y277579D01*
D02*
G37*
G36*
X384437Y272923D02*
X384451Y272535D01*
X384493Y272159D01*
X384562Y271794D01*
X384660Y271441D01*
X384785Y271099D01*
X384938Y270769D01*
X385119Y270450D01*
X385328Y270143D01*
X385564Y269847D01*
X385829Y269563D01*
X382757Y269851D01*
X381365Y271243D01*
X381077Y274315D01*
X381341Y274071D01*
X381578Y273893D01*
X381786Y273783D01*
X381967Y273740D01*
X382120Y273763D01*
X382246Y273855D01*
X382343Y274013D01*
X382413Y274239D01*
X382455Y274532D01*
X382469Y274892D01*
X384437Y272923D01*
D02*
G37*
G36*
X396779Y273709D02*
X396838Y273610D01*
X396937Y273524D01*
X397075Y273448D01*
X397252Y273385D01*
X397468Y273333D01*
X397724Y273292D01*
X398020Y273263D01*
X398728Y273240D01*
Y271272D01*
X398354Y271266D01*
X397724Y271220D01*
X397468Y271179D01*
X397252Y271127D01*
X397075Y271063D01*
X396937Y270988D01*
X396838Y270901D01*
X396779Y270803D01*
X396760Y270693D01*
Y273819D01*
X396779Y273709D01*
D02*
G37*
G36*
X346534Y271300D02*
X346580Y270715D01*
X346607Y270572D01*
X346641Y270456D01*
X346680Y270365D01*
X346726Y270300D01*
X346777Y270261D01*
X346835Y270248D01*
X344260D01*
X344317Y270261D01*
X344369Y270300D01*
X344414Y270365D01*
X344454Y270456D01*
X344487Y270572D01*
X344514Y270715D01*
X344536Y270884D01*
X344560Y271300D01*
X344563Y271547D01*
X346532D01*
X346534Y271300D01*
D02*
G37*
G36*
X366535Y271854D02*
X366593Y270968D01*
X366627Y270752D01*
X366669Y270575D01*
X366719Y270437D01*
X366776Y270338D01*
X366841Y270279D01*
X366913Y270260D01*
X364181D01*
X364254Y270279D01*
X364319Y270338D01*
X364376Y270437D01*
X364426Y270575D01*
X364468Y270752D01*
X364502Y270968D01*
X364529Y271224D01*
X364559Y271854D01*
X364563Y272228D01*
X366531D01*
X366535Y271854D01*
D02*
G37*
G36*
X393240Y270693D02*
X393221Y270803D01*
X393162Y270901D01*
X393063Y270988D01*
X392925Y271063D01*
X392748Y271127D01*
X392532Y271179D01*
X392276Y271220D01*
X391981Y271249D01*
X391272Y271272D01*
Y273240D01*
X391646Y273246D01*
X392276Y273292D01*
X392532Y273333D01*
X392748Y273385D01*
X392925Y273448D01*
X393063Y273524D01*
X393162Y273610D01*
X393221Y273709D01*
X393240Y273819D01*
Y270693D01*
D02*
G37*
G36*
X396612Y276662D02*
X396480Y276603D01*
X396364Y276504D01*
X396263Y276366D01*
X396178Y276189D01*
X396108Y275973D01*
X396054Y275717D01*
X396015Y275422D01*
X396005Y275278D01*
X396054Y274783D01*
X396108Y274527D01*
X396178Y274311D01*
X396263Y274134D01*
X396364Y273996D01*
X396480Y273897D01*
X396612Y273838D01*
X396760Y273819D01*
X393240D01*
X393388Y273838D01*
X393519Y273897D01*
X393636Y273996D01*
X393737Y274134D01*
X393822Y274311D01*
X393892Y274527D01*
X393946Y274783D01*
X393985Y275079D01*
X393995Y275222D01*
X393946Y275717D01*
X393892Y275973D01*
X393822Y276189D01*
X393737Y276366D01*
X393636Y276504D01*
X393519Y276603D01*
X393388Y276662D01*
X393240Y276681D01*
X396760D01*
X396612Y276662D01*
D02*
G37*
G36*
X347293Y275521D02*
X347099Y275589D01*
X346887Y275612D01*
X346656Y275588D01*
X346406Y275517D01*
X346137Y275400D01*
X345849Y275236D01*
X345542Y275026D01*
X345216Y274769D01*
X344872Y274466D01*
X344509Y274117D01*
X343359Y275750D01*
X344575Y276879D01*
X347293Y275521D01*
D02*
G37*
G36*
X391874Y279705D02*
X391743Y277930D01*
X389699Y278756D01*
X389738Y278781D01*
X389773Y278823D01*
X389804Y278883D01*
X389831Y278959D01*
X389854Y279052D01*
X389873Y279162D01*
X389887Y279288D01*
X389903Y279592D01*
X389906Y279769D01*
X391874Y279705D01*
D02*
G37*
G36*
X344930Y282132D02*
X344863Y282119D01*
X346292Y280521D01*
X346148Y280639D01*
X345977Y280703D01*
X345779Y280712D01*
X345554Y280667D01*
X345303Y280567D01*
X345024Y280412D01*
X344718Y280202D01*
X344385Y279938D01*
X344025Y279620D01*
X343679Y279287D01*
X343608Y279214D01*
X343179Y278727D01*
X343133Y278660D01*
X343101Y278602D01*
X343081Y278554D01*
X343075Y278516D01*
X341516Y280075D01*
X341554Y280081D01*
X341602Y280100D01*
X341659Y280133D01*
X341727Y280179D01*
X341805Y280239D01*
X341990Y280397D01*
X342341Y280733D01*
X342932Y280142D01*
X342411Y280804D01*
X343219Y281602D01*
X343522Y281869D01*
X344863Y282119D01*
X344790Y282201D01*
X344993Y282240D01*
X344930Y282132D01*
D02*
G37*
G36*
X336038Y276873D02*
X336027Y276831D01*
X336017Y276762D01*
X336008Y276665D01*
X335987Y275999D01*
X335984Y275500D01*
X334016D01*
X333949Y276887D01*
X336051D01*
X336038Y276873D01*
D02*
G37*
G36*
X366251Y274117D02*
X364851Y275501D01*
X364855Y275504D01*
X364857Y275508D01*
X364859Y275511D01*
X364860Y275514D01*
X364859Y275516D01*
X364858Y275518D01*
X364856Y275519D01*
X364853Y275520D01*
X364848Y275520D01*
X364843Y275521D01*
X367659D01*
X366251Y274117D01*
D02*
G37*
G36*
X326592Y277375D02*
X326488Y277184D01*
X326396Y276974D01*
X326316Y276743D01*
X326248Y276492D01*
X326193Y276221D01*
X326150Y275931D01*
X326101Y275288D01*
X326095Y274937D01*
X324126Y274807D01*
X324118Y275132D01*
X324093Y275445D01*
X324051Y275746D01*
X323992Y276037D01*
X323917Y276316D01*
X323825Y276585D01*
X323717Y276841D01*
X323592Y277087D01*
X323450Y277322D01*
X323291Y277545D01*
X326709D01*
X326592Y277375D01*
D02*
G37*
G36*
X375240Y275087D02*
X375221Y275168D01*
X375162Y275241D01*
X375063Y275306D01*
X374925Y275361D01*
X374748Y275409D01*
X374532Y275447D01*
X374276Y275477D01*
X373646Y275512D01*
X373272Y275516D01*
Y277484D01*
X373646Y277488D01*
X374748Y277568D01*
X374925Y277605D01*
X375063Y277648D01*
X375162Y277698D01*
X375221Y277755D01*
X375240Y277819D01*
Y275087D01*
D02*
G37*
G36*
X378104Y264533D02*
X378134Y264196D01*
X378183Y263899D01*
X378252Y263642D01*
X378341Y263424D01*
X378449Y263246D01*
X378577Y263107D01*
X378724Y263008D01*
X378892Y262949D01*
X379079Y262929D01*
X375142D01*
X375329Y262949D01*
X375496Y263008D01*
X375644Y263107D01*
X375772Y263246D01*
X375880Y263424D01*
X375969Y263642D01*
X376037Y263899D01*
X376087Y264196D01*
X376116Y264533D01*
X376126Y264909D01*
X378095D01*
X378104Y264533D01*
D02*
G37*
G36*
X326104Y264535D02*
X326134Y264201D01*
X326183Y263905D01*
X326252Y263649D01*
X326341Y263433D01*
X326449Y263256D01*
X326577Y263118D01*
X326724Y263019D01*
X326892Y262960D01*
X327079Y262941D01*
X323142D01*
X323329Y262960D01*
X323496Y263019D01*
X323644Y263118D01*
X323772Y263256D01*
X323880Y263433D01*
X323969Y263649D01*
X324037Y263905D01*
X324087Y264201D01*
X324116Y264535D01*
X324126Y264909D01*
X326095D01*
X326104Y264535D01*
D02*
G37*
G36*
X368712Y265017D02*
X368746Y265010D01*
X368799Y265004D01*
X368958Y264994D01*
X369674Y264984D01*
Y263016D01*
X368696Y262976D01*
Y265024D01*
X368712Y265017D01*
D02*
G37*
G36*
X400571Y262032D02*
X400551Y262218D01*
X400492Y262386D01*
X400393Y262533D01*
X400254Y262661D01*
X400076Y262770D01*
X399858Y262858D01*
X399601Y262927D01*
X399304Y262976D01*
X398967Y263006D01*
X398591Y263016D01*
Y264984D01*
X398967Y264994D01*
X399304Y265024D01*
X399601Y265073D01*
X399858Y265142D01*
X400076Y265230D01*
X400254Y265339D01*
X400393Y265466D01*
X400492Y265614D01*
X400551Y265781D01*
X400571Y265968D01*
Y262032D01*
D02*
G37*
G36*
X341838Y261782D02*
X341898Y261614D01*
X341997Y261467D01*
X342135Y261339D01*
X342314Y261230D01*
X342531Y261142D01*
X342789Y261073D01*
X343086Y261024D01*
X343423Y260994D01*
X343799Y260984D01*
Y259016D01*
X343423Y259006D01*
X343086Y258976D01*
X342789Y258927D01*
X342531Y258858D01*
X342314Y258770D01*
X342135Y258661D01*
X341997Y258534D01*
X341898Y258386D01*
X341838Y258219D01*
X341818Y258032D01*
Y261968D01*
X341838Y261782D01*
D02*
G37*
G36*
X353770Y258240D02*
X353751Y258388D01*
X353692Y258520D01*
X353593Y258636D01*
X353455Y258737D01*
X353278Y258822D01*
X353062Y258892D01*
X352806Y258946D01*
X352510Y258985D01*
X352176Y259008D01*
X351802Y259016D01*
Y260984D01*
X352176Y260992D01*
X352806Y261054D01*
X353062Y261108D01*
X353278Y261178D01*
X353455Y261263D01*
X353593Y261364D01*
X353692Y261480D01*
X353751Y261612D01*
X353770Y261760D01*
Y258240D01*
D02*
G37*
G36*
X362030Y263354D02*
X362087Y262468D01*
X362121Y262252D01*
X362163Y262075D01*
X362213Y261937D01*
X362270Y261838D01*
X362335Y261779D01*
X362408Y261760D01*
X359676D01*
X359748Y261779D01*
X359813Y261838D01*
X359870Y261937D01*
X359920Y262075D01*
X359962Y262252D01*
X359996Y262468D01*
X360023Y262724D01*
X360054Y263354D01*
X360057Y263728D01*
X362026D01*
X362030Y263354D01*
D02*
G37*
G36*
X396679Y267243D02*
X396647Y267110D01*
X396664Y266948D01*
X396730Y266756D01*
X396845Y266534D01*
X397008Y266283D01*
X397221Y266002D01*
X397793Y265353D01*
X398152Y264984D01*
X396563Y263789D01*
X396209Y264134D01*
X395303Y264894D01*
X395054Y265056D01*
X394831Y265172D01*
X394634Y265243D01*
X394463Y265268D01*
X394319Y265247D01*
X394200Y265181D01*
X396760Y267347D01*
X396679Y267243D01*
D02*
G37*
G36*
X364181Y268928D02*
X364253Y269094D01*
X364316Y269336D01*
X364327Y269554D01*
X364286Y269748D01*
X364193Y269918D01*
X366571Y266752D01*
X366437Y266880D01*
X366271Y266948D01*
X366072Y266957D01*
X365842Y266906D01*
X365580Y266795D01*
X365285Y266625D01*
X364959Y266395D01*
X364600Y266106D01*
X363788Y265348D01*
X362789Y267134D01*
X363104Y267461D01*
X362922Y267485D01*
X362587Y267508D01*
X362213Y267516D01*
Y269484D01*
X362587Y269492D01*
X363217Y269554D01*
X363473Y269608D01*
X363689Y269678D01*
X363866Y269763D01*
X364004Y269864D01*
X364103Y269981D01*
X364162Y270112D01*
X364181Y270260D01*
Y268928D01*
D02*
G37*
G36*
X378633Y269162D02*
X378520Y269103D01*
X378420Y269004D01*
X378334Y268866D01*
X378261Y268689D01*
X378201Y268473D01*
X378154Y268217D01*
X378121Y267921D01*
X378101Y267587D01*
X378095Y267213D01*
X376126D01*
X376117Y267587D01*
X376091Y267921D01*
X376046Y268217D01*
X375984Y268473D01*
X375905Y268689D01*
X375807Y268866D01*
X375692Y269004D01*
X375559Y269103D01*
X375409Y269162D01*
X375240Y269181D01*
X378760D01*
X378633Y269162D01*
D02*
G37*
G36*
X341156Y269580D02*
X341204Y269560D01*
X341268Y269542D01*
X341348Y269527D01*
X341445Y269514D01*
X341688Y269495D01*
X342174Y269484D01*
X342174Y267516D01*
X341996Y267515D01*
X341348Y267473D01*
X341268Y267458D01*
X341204Y267440D01*
X341156Y267420D01*
X341125Y267398D01*
X341125Y269602D01*
X341156Y269580D01*
D02*
G37*
G36*
X352838Y270112D02*
X352897Y269981D01*
X352996Y269864D01*
X353134Y269763D01*
X353311Y269678D01*
X353527Y269608D01*
X353783Y269554D01*
X354079Y269515D01*
X354413Y269492D01*
X354787Y269484D01*
Y267516D01*
X354413Y267508D01*
X353783Y267446D01*
X353527Y267392D01*
X353311Y267322D01*
X353134Y267237D01*
X352996Y267136D01*
X352897Y267020D01*
X352838Y266888D01*
X352819Y266740D01*
Y270260D01*
X352838Y270112D01*
D02*
G37*
G36*
X393240Y265181D02*
X393221Y265291D01*
X393162Y265390D01*
X393063Y265476D01*
X392925Y265552D01*
X392748Y265615D01*
X392532Y265667D01*
X392276Y265708D01*
X391981Y265737D01*
X391272Y265760D01*
Y267728D01*
X391646Y267734D01*
X392276Y267780D01*
X392532Y267821D01*
X392748Y267873D01*
X392925Y267937D01*
X393063Y268012D01*
X393162Y268099D01*
X393221Y268197D01*
X393240Y268307D01*
Y265181D01*
D02*
G37*
G36*
X372644Y266740D02*
X372601Y266702D01*
X372563Y266640D01*
X372529Y266552D01*
X372501Y266439D01*
X372478Y266301D01*
X372460Y266139D01*
X372440Y265738D01*
X372437Y265500D01*
X370468D01*
X370466Y265738D01*
X370427Y266301D01*
X370405Y266439D01*
X370376Y266552D01*
X370343Y266640D01*
X370305Y266702D01*
X370261Y266740D01*
X370212Y266752D01*
X372693D01*
X372644Y266740D01*
D02*
G37*
G36*
X344181Y266740D02*
X344162Y266888D01*
X344103Y267020D01*
X344004Y267136D01*
X343866Y267237D01*
X343689Y267322D01*
X343473Y267392D01*
X343217Y267446D01*
X342921Y267485D01*
X342587Y267508D01*
X342213Y267516D01*
Y269484D01*
X342587Y269492D01*
X343217Y269554D01*
X343473Y269608D01*
X343689Y269678D01*
X343866Y269763D01*
X344004Y269864D01*
X344103Y269981D01*
X344162Y270112D01*
X344181Y270260D01*
Y266740D01*
D02*
G37*
G36*
X378477Y280415D02*
X378447Y280434D01*
X378401Y280451D01*
X378338Y280467D01*
X378259Y280480D01*
X378050Y280500D01*
X377613Y280515D01*
X377434Y280516D01*
X377340Y282484D01*
X377518Y282486D01*
X378167Y282533D01*
X378248Y282550D01*
X378313Y282570D01*
X378361Y282593D01*
X378394Y282618D01*
X378477Y280415D01*
D02*
G37*
G36*
X352838Y300612D02*
X352897Y300481D01*
X352996Y300364D01*
X353134Y300263D01*
X353311Y300178D01*
X353527Y300108D01*
X353783Y300054D01*
X354079Y300015D01*
X354413Y299992D01*
X354787Y299984D01*
Y298016D01*
X354413Y298008D01*
X353783Y297946D01*
X353527Y297892D01*
X353311Y297822D01*
X353134Y297737D01*
X352996Y297636D01*
X352897Y297519D01*
X352838Y297388D01*
X352819Y297240D01*
Y300760D01*
X352838Y300612D01*
D02*
G37*
G36*
X364181Y297240D02*
X364162Y297388D01*
X364103Y297519D01*
X364004Y297636D01*
X363866Y297737D01*
X363689Y297822D01*
X363473Y297892D01*
X363217Y297946D01*
X362922Y297985D01*
X362587Y298008D01*
X362213Y298016D01*
Y299984D01*
X362587Y299992D01*
X363217Y300054D01*
X363473Y300108D01*
X363689Y300178D01*
X363866Y300263D01*
X364004Y300364D01*
X364103Y300481D01*
X364162Y300612D01*
X364181Y300760D01*
Y297240D01*
D02*
G37*
G36*
X384596Y299470D02*
X384574Y299438D01*
X384554Y299391D01*
X384536Y299327D01*
X384520Y299247D01*
X384506Y299150D01*
X384486Y298907D01*
X384473Y298421D01*
X382505Y298431D01*
X382504Y298609D01*
X382466Y299257D01*
X382451Y299338D01*
X382434Y299402D01*
X382414Y299450D01*
X382392Y299481D01*
X384596Y299470D01*
D02*
G37*
G36*
X384752Y297221D02*
X384692Y297162D01*
X384638Y297063D01*
X384592Y296925D01*
X384552Y296748D01*
X384520Y296532D01*
X384474Y295981D01*
X384457Y295272D01*
X382488D01*
X382486Y295646D01*
X382429Y296532D01*
X382393Y296748D01*
X382348Y296925D01*
X382296Y297063D01*
X382235Y297162D01*
X382165Y297221D01*
X382087Y297240D01*
X384819D01*
X384752Y297221D01*
D02*
G37*
G36*
X319580Y295844D02*
X319560Y295796D01*
X319542Y295732D01*
X319527Y295652D01*
X319514Y295555D01*
X319495Y295312D01*
X319484Y294826D01*
X317516D01*
X317515Y295004D01*
X317473Y295652D01*
X317458Y295732D01*
X317440Y295796D01*
X317420Y295844D01*
X317398Y295875D01*
X319602D01*
X319580Y295844D01*
D02*
G37*
G36*
X325189Y297043D02*
X325238Y297021D01*
X325303Y297001D01*
X325384Y296984D01*
X325481Y296970D01*
X325724Y296949D01*
X326211Y296937D01*
X326135Y294969D01*
X325956Y294968D01*
X325231Y294917D01*
X325167Y294902D01*
X325121Y294884D01*
X325091Y294864D01*
X325157Y297068D01*
X325189Y297043D01*
D02*
G37*
G36*
X346841Y297221D02*
X346776Y297162D01*
X346719Y297063D01*
X346669Y296925D01*
X346627Y296748D01*
X346593Y296532D01*
X346566Y296276D01*
X346535Y295646D01*
X346532Y295272D01*
X344563D01*
X344559Y295646D01*
X344502Y296532D01*
X344468Y296748D01*
X344426Y296925D01*
X344376Y297063D01*
X344319Y297162D01*
X344254Y297221D01*
X344181Y297240D01*
X346913D01*
X346841Y297221D01*
D02*
G37*
G36*
X366535Y302354D02*
X366593Y301468D01*
X366627Y301252D01*
X366669Y301075D01*
X366719Y300937D01*
X366776Y300838D01*
X366841Y300779D01*
X366913Y300760D01*
X364181D01*
X364254Y300779D01*
X364319Y300838D01*
X364376Y300937D01*
X364426Y301075D01*
X364468Y301252D01*
X364502Y301468D01*
X364529Y301724D01*
X364559Y302354D01*
X364563Y302728D01*
X366531D01*
X366535Y302354D01*
D02*
G37*
G36*
X392471Y307446D02*
X392490Y307398D01*
X392523Y307341D01*
X392569Y307273D01*
X392628Y307195D01*
X392787Y307010D01*
X393123Y306659D01*
X391731Y305267D01*
X391604Y305392D01*
X391117Y305821D01*
X391049Y305867D01*
X390991Y305900D01*
X390944Y305919D01*
X390905Y305925D01*
X392464Y307484D01*
X392471Y307446D01*
D02*
G37*
G36*
X341838Y309281D02*
X341898Y309114D01*
X341997Y308966D01*
X342135Y308839D01*
X342314Y308730D01*
X342531Y308642D01*
X342789Y308573D01*
X343086Y308524D01*
X343423Y308494D01*
X343799Y308484D01*
Y306516D01*
X343423Y306506D01*
X343086Y306476D01*
X342789Y306427D01*
X342531Y306358D01*
X342314Y306270D01*
X342135Y306161D01*
X341997Y306033D01*
X341898Y305886D01*
X341838Y305718D01*
X341818Y305532D01*
Y309469D01*
X341838Y309281D01*
D02*
G37*
G36*
X353770Y305740D02*
X353751Y305888D01*
X353692Y306019D01*
X353593Y306136D01*
X353455Y306237D01*
X353278Y306322D01*
X353062Y306392D01*
X352806Y306446D01*
X352510Y306485D01*
X352176Y306508D01*
X351802Y306516D01*
Y308484D01*
X352176Y308492D01*
X352806Y308554D01*
X353062Y308608D01*
X353278Y308678D01*
X353455Y308763D01*
X353593Y308864D01*
X353692Y308980D01*
X353751Y309112D01*
X353770Y309260D01*
Y305740D01*
D02*
G37*
G36*
X362314Y308747D02*
X362272Y308552D01*
X362282Y308334D01*
X362344Y308091D01*
X362457Y307825D01*
X362622Y307534D01*
X362839Y307220D01*
X363107Y306882D01*
X363428Y306520D01*
X363513Y306432D01*
X363642Y306312D01*
X363937Y306075D01*
X364245Y305866D01*
X364563Y305685D01*
X364894Y305532D01*
X365235Y305407D01*
X365589Y305310D01*
X365954Y305240D01*
X366330Y305198D01*
X366718Y305184D01*
X364342Y304200D01*
X363646Y303504D01*
X362801Y304348D01*
X362380Y304756D01*
X361633Y305392D01*
X361307Y305621D01*
X361012Y305790D01*
X360750Y305899D01*
X360519Y305949D01*
X360320Y305939D01*
X360153Y305869D01*
X360017Y305740D01*
X362408Y308918D01*
X362314Y308747D01*
D02*
G37*
G36*
X379329Y304540D02*
X379161Y304481D01*
X379014Y304382D01*
X378886Y304244D01*
X378778Y304067D01*
X378689Y303851D01*
X378620Y303595D01*
X378571Y303299D01*
X378541Y302965D01*
X378533Y302629D01*
X378535Y302354D01*
X378593Y301468D01*
X378627Y301252D01*
X378669Y301075D01*
X378718Y300937D01*
X378776Y300838D01*
X378841Y300779D01*
X378913Y300760D01*
X376181D01*
X376254Y300779D01*
X376319Y300838D01*
X376376Y300937D01*
X376426Y301075D01*
X376468Y301252D01*
X376502Y301468D01*
X376529Y301724D01*
X376559Y302354D01*
X376562Y302629D01*
X376553Y302965D01*
X376524Y303299D01*
X376474Y303595D01*
X376406Y303851D01*
X376317Y304067D01*
X376209Y304244D01*
X376081Y304382D01*
X375933Y304481D01*
X375766Y304540D01*
X375579Y304559D01*
X379516D01*
X379329Y304540D01*
D02*
G37*
G36*
X369075Y303098D02*
X369044Y303120D01*
X368996Y303140D01*
X368932Y303158D01*
X368852Y303173D01*
X368755Y303186D01*
X368512Y303205D01*
X368026Y303216D01*
Y305184D01*
X368204Y305185D01*
X368852Y305227D01*
X368932Y305242D01*
X368996Y305260D01*
X369044Y305280D01*
X369075Y305302D01*
Y303098D01*
D02*
G37*
G36*
X393719Y307190D02*
X393664Y307009D01*
Y306800D01*
X393719Y306564D01*
X393830Y306299D01*
X393998Y306007D01*
X394220Y305687D01*
X394499Y305339D01*
X395222Y304559D01*
X393830Y303167D01*
X393427Y303557D01*
X392703Y304170D01*
X392383Y304392D01*
X392091Y304559D01*
X391826Y304671D01*
X391589Y304726D01*
X391381D01*
X391200Y304671D01*
X391047Y304559D01*
X393830Y307343D01*
X393719Y307190D01*
D02*
G37*
G36*
X335992Y285806D02*
X336050Y285171D01*
X336100Y284878D01*
X336165Y284600D01*
X336245Y284339D01*
X336339Y284094D01*
X336448Y283865D01*
X336571Y283652D01*
X336709Y283455D01*
X333291D01*
X333429Y283652D01*
X333552Y283865D01*
X333661Y284094D01*
X333755Y284339D01*
X333835Y284600D01*
X333900Y284878D01*
X333950Y285171D01*
X333987Y285480D01*
X334016Y286147D01*
X335984D01*
X335992Y285806D01*
D02*
G37*
G36*
X325990Y285553D02*
X326075Y284492D01*
X326125Y284233D01*
X326187Y284021D01*
X326261Y283857D01*
X326345Y283739D01*
X326441Y283668D01*
X326549Y283645D01*
X323451D01*
X323559Y283668D01*
X323655Y283739D01*
X323739Y283857D01*
X323813Y284021D01*
X323875Y284233D01*
X323925Y284492D01*
X323965Y284799D01*
X324010Y285553D01*
X324016Y286000D01*
X325984D01*
X325990Y285553D01*
D02*
G37*
G36*
X376660Y286930D02*
X374600Y286221D01*
X374612Y286264D01*
X374609Y286316D01*
X374590Y286377D01*
X374557Y286448D01*
X374509Y286528D01*
X374445Y286617D01*
X374366Y286716D01*
X374164Y286942D01*
X374040Y287068D01*
X375533Y288359D01*
X376660Y286930D01*
D02*
G37*
G36*
X330992Y285806D02*
X331049Y285171D01*
X331100Y284878D01*
X331165Y284600D01*
X331245Y284339D01*
X331339Y284094D01*
X331448Y283865D01*
X331571Y283652D01*
X331709Y283455D01*
X328291D01*
X328429Y283652D01*
X328552Y283865D01*
X328661Y284094D01*
X328755Y284339D01*
X328835Y284600D01*
X328900Y284878D01*
X328951Y285171D01*
X328987Y285480D01*
X329016Y286147D01*
X330984D01*
X330992Y285806D01*
D02*
G37*
G36*
X401425Y281900D02*
X401205Y282103D01*
X400980Y282284D01*
X400749Y282445D01*
X400511Y282584D01*
X400268Y282701D01*
X400019Y282798D01*
X399763Y282872D01*
X399502Y282926D01*
X399235Y282958D01*
X398962Y282968D01*
X398928Y284937D01*
X399203Y284948D01*
X399470Y284981D01*
X399731Y285036D01*
X399984Y285112D01*
X400231Y285211D01*
X400470Y285332D01*
X400703Y285474D01*
X400928Y285638D01*
X401147Y285825D01*
X401359Y286033D01*
X401425Y281900D01*
D02*
G37*
G36*
X396779Y285246D02*
X396838Y285181D01*
X396937Y285124D01*
X397075Y285074D01*
X397252Y285032D01*
X397468Y284998D01*
X397724Y284971D01*
X398354Y284941D01*
X398728Y284937D01*
Y282968D01*
X398354Y282965D01*
X397468Y282907D01*
X397252Y282873D01*
X397075Y282831D01*
X396937Y282782D01*
X396838Y282724D01*
X396779Y282659D01*
X396760Y282587D01*
Y285319D01*
X396779Y285246D01*
D02*
G37*
G36*
X380544Y283555D02*
X380586Y282907D01*
X380601Y282827D01*
X380619Y282763D01*
X380639Y282715D01*
X380661Y282684D01*
X378457D01*
X378479Y282715D01*
X378499Y282763D01*
X378517Y282827D01*
X378532Y282907D01*
X378545Y283004D01*
X378564Y283247D01*
X378575Y283733D01*
X380543D01*
X380544Y283555D01*
D02*
G37*
G36*
X331612Y288662D02*
X331481Y288603D01*
X331364Y288504D01*
X331263Y288366D01*
X331178Y288189D01*
X331108Y287973D01*
X331054Y287717D01*
X331015Y287421D01*
X330992Y287087D01*
X330984Y286713D01*
X329016D01*
X329008Y287087D01*
X328946Y287717D01*
X328892Y287973D01*
X328822Y288189D01*
X328737Y288366D01*
X328636Y288504D01*
X328520Y288603D01*
X328388Y288662D01*
X328240Y288681D01*
X331760D01*
X331612Y288662D01*
D02*
G37*
G36*
X348244Y293597D02*
X348524Y293359D01*
X348803Y293148D01*
X349082Y292966D01*
X349361Y292811D01*
X349639Y292685D01*
X349917Y292587D01*
X350194Y292516D01*
X350471Y292474D01*
X350747Y292460D01*
X345179D01*
X345432Y292474D01*
X345629Y292516D01*
X345769Y292587D01*
X345853Y292685D01*
X345881Y292811D01*
X345853Y292966D01*
X345769Y293148D01*
X345629Y293359D01*
X345432Y293597D01*
X345179Y293864D01*
X347963D01*
X348244Y293597D01*
D02*
G37*
G36*
X384458Y294854D02*
X384509Y293968D01*
X384542Y293752D01*
X384582Y293575D01*
X384630Y293437D01*
X384685Y293338D01*
X384748Y293279D01*
X384819Y293260D01*
X382087D01*
X382161Y293279D01*
X382228Y293338D01*
X382287Y293437D01*
X382339Y293575D01*
X382382Y293752D01*
X382419Y293968D01*
X382448Y294224D01*
X382482Y294854D01*
X382488Y295228D01*
X384456D01*
X384458Y294854D01*
D02*
G37*
G36*
X328240Y294587D02*
X328221Y294659D01*
X328162Y294724D01*
X328063Y294781D01*
X327925Y294831D01*
X327748Y294873D01*
X327532Y294907D01*
X327276Y294934D01*
X326646Y294965D01*
X326272Y294969D01*
Y296937D01*
X326646Y296941D01*
X327532Y296998D01*
X327748Y297032D01*
X327925Y297074D01*
X328063Y297124D01*
X328162Y297181D01*
X328221Y297246D01*
X328240Y297319D01*
Y294587D01*
D02*
G37*
G36*
X371740Y291951D02*
X371874Y291870D01*
X372052Y291738D01*
X372274Y291553D01*
X373203Y290684D01*
X373602Y290290D01*
X371991Y289117D01*
X371621Y289473D01*
X370941Y290042D01*
X370632Y290255D01*
X370344Y290419D01*
X370075Y290536D01*
X369828Y290604D01*
X369601Y290624D01*
X369394Y290597D01*
X369207Y290521D01*
X371603Y291879D01*
X371605Y291955D01*
X371651Y291979D01*
X371740Y291951D01*
D02*
G37*
G36*
X378759Y291250D02*
X378679Y291096D01*
X378661Y290907D01*
X378704Y290685D01*
X378808Y290429D01*
X378974Y290138D01*
X379202Y289814D01*
X379492Y289456D01*
X380255Y288637D01*
X378456Y287652D01*
X376181Y289740D01*
X378901Y291371D01*
X378759Y291250D01*
D02*
G37*
G36*
X384746Y289721D02*
X384681Y289662D01*
X384624Y289563D01*
X384574Y289425D01*
X384532Y289248D01*
X384498Y289032D01*
X384471Y288776D01*
X384441Y288146D01*
X384437Y287772D01*
X382469D01*
X382465Y288146D01*
X382407Y289032D01*
X382373Y289248D01*
X382331Y289425D01*
X382281Y289563D01*
X382224Y289662D01*
X382159Y289721D01*
X382087Y289740D01*
X384819D01*
X384746Y289721D01*
D02*
G37*
G36*
X339918Y288681D02*
X339747Y288775D01*
X339552Y288817D01*
X339334Y288807D01*
X339091Y288745D01*
X338825Y288632D01*
X338534Y288467D01*
X338220Y288250D01*
X337882Y287982D01*
X337520Y287661D01*
X337134Y287289D01*
X335348Y288288D01*
X335756Y288709D01*
X336392Y289456D01*
X336621Y289783D01*
X336790Y290077D01*
X336899Y290339D01*
X336949Y290570D01*
X336939Y290769D01*
X336869Y290936D01*
X336740Y291072D01*
X339918Y288681D01*
D02*
G37*
D10*
X338500Y290047D02*
D03*
Y295953D02*
D03*
X395000Y283953D02*
D03*
Y278047D02*
D03*
X377000Y276453D02*
D03*
Y270547D02*
D03*
X330000Y290047D02*
D03*
Y295953D02*
D03*
D11*
X345547Y299000D02*
D03*
X351453D02*
D03*
X361042Y307500D02*
D03*
X355136D02*
D03*
X371453Y299000D02*
D03*
X365547D02*
D03*
X383453D02*
D03*
X377547D02*
D03*
X383453Y291500D02*
D03*
X377547D02*
D03*
X371453Y268500D02*
D03*
X365547D02*
D03*
X361042Y260000D02*
D03*
X355136D02*
D03*
X345547Y268500D02*
D03*
X351453D02*
D03*
D12*
X395000Y266744D02*
D03*
Y272256D02*
D03*
D13*
X325110Y307500D02*
D03*
X338890D02*
D03*
X325110Y260000D02*
D03*
X338890D02*
D03*
X390890D02*
D03*
X377110D02*
D03*
X390890Y307500D02*
D03*
X377110D02*
D03*
D14*
X348935Y291500D02*
D03*
D15*
Y286500D02*
D03*
Y281500D02*
D03*
Y276500D02*
D03*
X367243Y291500D02*
D03*
Y286500D02*
D03*
Y281500D02*
D03*
Y276500D02*
D03*
D16*
X364342Y304200D02*
X365547Y302994D01*
X361042Y307500D02*
X364342Y304200D01*
X370200D01*
X365547Y299000D02*
Y302994D01*
X343647Y300900D02*
X345547Y299000D01*
X315600Y300900D02*
X343647D01*
X312500Y304000D02*
X315600Y300900D01*
X387600Y299400D02*
X388800Y300600D01*
X387600Y279633D02*
Y299400D01*
X386741Y278774D02*
X387600Y279633D01*
X389552Y272256D02*
X395000D01*
X386741Y275067D02*
X389552Y272256D01*
X386741Y275067D02*
Y278774D01*
X390300Y277300D02*
X390890Y277890D01*
Y292000D01*
X395700Y296810D01*
Y302690D01*
X390890Y307500D02*
X395700Y302690D01*
X383453Y291500D02*
X383500Y300600D01*
X367243Y276500D02*
X376547D01*
X395000Y266744D02*
X397744Y264000D01*
X403500D01*
X330000Y290047D02*
X332547D01*
X335953Y295953D02*
X337000D01*
X332547Y290047D02*
X334000Y291500D01*
Y294000D01*
X335953Y295953D01*
X335000Y280500D02*
Y286547D01*
X338500Y290047D01*
X330000Y280500D02*
Y290047D01*
X330000Y290047D01*
X377547Y299000D02*
Y307063D01*
X395000Y272256D02*
Y278047D01*
Y272256D02*
X395000Y272256D01*
X401756D02*
X403500Y274000D01*
X395000Y272256D02*
X401756D01*
X338890Y307500D02*
X355136D01*
X338890Y307500D02*
X338890Y307500D01*
X345547Y294888D02*
Y299000D01*
Y294888D02*
X348935Y291500D01*
X377000Y276453D02*
X377547D01*
X387256Y266744D02*
X395000D01*
X377547Y276453D02*
X383453Y270547D01*
X387256Y266744D01*
X351453Y268500D02*
X365547D01*
X377110Y260000D02*
Y270437D01*
X377000Y270547D02*
X377110Y270437D01*
X338890Y260000D02*
X355136D01*
X355136Y260000D01*
X325110Y260000D02*
Y280390D01*
X325000Y280500D02*
X325110Y280390D01*
X351453Y299000D02*
X365547D01*
X371453Y296453D02*
Y299000D01*
X370000Y295000D02*
X371453Y296453D01*
X360500Y295000D02*
X370000D01*
X358000Y292500D02*
X360500Y295000D01*
X358000Y288500D02*
Y292500D01*
X356000Y286500D02*
X358000Y288500D01*
X348935Y286500D02*
X356000D01*
X361000D02*
X367243D01*
X342500D02*
X348935D01*
X341000Y285000D02*
X342500Y286500D01*
X325047Y295953D02*
X330000D01*
X325000Y296000D02*
X325047Y295953D01*
X358000Y283500D02*
X361000Y286500D01*
X354500Y273000D02*
X358000Y276500D01*
Y283500D01*
X377547Y289953D02*
Y291500D01*
X379559Y281559D02*
Y287941D01*
X377547Y289953D02*
X379559Y287941D01*
X367243Y291500D02*
X371000D01*
X376000Y285500D02*
Y286500D01*
X371000Y291500D02*
X376000Y286500D01*
X339500Y268500D02*
X340000D01*
X339500Y268500D02*
X345547D01*
X339500D02*
Y268500D01*
X325000Y280500D02*
Y286000D01*
X318500Y292500D02*
X325000Y286000D01*
X318500Y292500D02*
Y297000D01*
X395000Y283953D02*
X403453D01*
X403500Y284000D01*
X335000Y275500D02*
X337000Y273500D01*
X335000Y275500D02*
Y280500D01*
X345547Y268500D02*
Y271547D01*
X347000Y273000D01*
X354500D01*
X337000Y273500D02*
X342500D01*
X345500Y276500D01*
X348935D01*
X344500Y281500D02*
X348935D01*
X341500Y278500D02*
X344500Y281500D01*
X367500Y264000D02*
X369953D01*
X371453Y265500D01*
Y268500D01*
X361042Y260000D02*
Y263995D01*
X365547Y268500D01*
X365547Y268500D01*
Y274805D01*
X367243Y276500D01*
X383453Y270547D02*
Y291500D01*
X379500Y281500D02*
X379559Y281559D01*
X367243Y281500D02*
X379500D01*
D17*
X347800Y310900D02*
Y313261D01*
X349374Y310900D01*
Y313261D01*
X350161D02*
X350949D01*
X350555D01*
Y310900D01*
X350161D01*
X350949D01*
X352129Y313261D02*
Y311294D01*
X352523Y310900D01*
X353310D01*
X353704Y311294D01*
Y313261D01*
X356852Y310900D02*
X357639D01*
X357246D01*
Y313261D01*
X356852Y312868D01*
X360394Y313261D02*
X358820D01*
Y312081D01*
X359607Y312474D01*
X360001D01*
X360394Y312081D01*
Y311294D01*
X360001Y310900D01*
X359214D01*
X358820Y311294D01*
X361181Y310900D02*
Y311294D01*
X361575D01*
Y310900D01*
X361181D01*
X363149Y311294D02*
X363543Y310900D01*
X364330D01*
X364724Y311294D01*
Y312868D01*
X364330Y313261D01*
X363543D01*
X363149Y312868D01*
Y312474D01*
X363543Y312081D01*
X364724D01*
X365511Y310900D02*
Y311294D01*
X365904D01*
Y310900D01*
X365511D01*
X367479D02*
X368266D01*
X367872D01*
Y313261D01*
X367479Y312868D01*
D18*
X312500Y304000D02*
D03*
X403500Y264000D02*
D03*
D19*
X312500Y294000D02*
D03*
Y284000D02*
D03*
Y274000D02*
D03*
Y264000D02*
D03*
X403500Y274000D02*
D03*
Y284000D02*
D03*
Y294000D02*
D03*
Y304000D02*
D03*
D20*
X335000Y280500D02*
D03*
X325000D02*
D03*
D21*
X330000D02*
D03*
D22*
X383500Y300600D02*
D03*
X325000Y307500D02*
D03*
X390890D02*
D03*
X390779Y260000D02*
D03*
X388800Y300600D02*
D03*
X390300Y277300D02*
D03*
X370200Y304200D02*
D03*
X341000Y285000D02*
D03*
X324000Y296000D02*
D03*
X376000Y285500D02*
D03*
X340000Y268500D02*
D03*
X318500Y297000D02*
D03*
X341500Y278500D02*
D03*
X367500Y264000D02*
D03*
X379559Y281559D02*
D03*
M02*
