%FSLAX25Y25*%
%MOIN*%
G70*
G01*
G75*
%ADD10R,0.03543X0.02756*%
%ADD11R,0.02756X0.03543*%
%ADD12R,0.03543X0.03150*%
%ADD13R,0.05906X0.05906*%
%ADD14R,0.08858X0.01969*%
%ADD15O,0.08858X0.01969*%
%ADD16C,0.01969*%
%ADD17C,0.00394*%
%ADD18R,0.05906X0.05906*%
%ADD19C,0.05906*%
%ADD20O,0.03937X0.07874*%
%ADD21O,0.03937X0.07874*%
%ADD22C,0.03150*%
%ADD23C,0.00787*%
%ADD24C,0.00984*%
%ADD25C,0.00591*%
D17*
X344500Y257068D02*
X345812D01*
X345156D01*
Y255100D01*
X347780Y256740D02*
X347452Y257068D01*
X346796D01*
X346468Y256740D01*
Y255428D01*
X346796Y255100D01*
X347452D01*
X347780Y255428D01*
X349748Y256740D02*
X349420Y257068D01*
X348764D01*
X348436Y256740D01*
Y256412D01*
X348764Y256084D01*
X349420D01*
X349748Y255756D01*
Y255428D01*
X349420Y255100D01*
X348764D01*
X348436Y255428D01*
X350404Y256740D02*
X350732Y257068D01*
X351388D01*
X351715Y256740D01*
Y256412D01*
X351388Y256084D01*
X351060D01*
X351388D01*
X351715Y255756D01*
Y255428D01*
X351388Y255100D01*
X350732D01*
X350404Y255428D01*
X353683Y255100D02*
X352371D01*
X353683Y256412D01*
Y256740D01*
X353355Y257068D01*
X352699D01*
X352371Y256740D01*
X354339D02*
X354667Y257068D01*
X355323D01*
X355651Y256740D01*
Y255428D01*
X355323Y255100D01*
X354667D01*
X354339Y255428D01*
Y256740D01*
X356307D02*
X356635Y257068D01*
X357291D01*
X357619Y256740D01*
Y255428D01*
X357291Y255100D01*
X356635D01*
X356307Y255428D01*
Y256740D01*
X360243Y257068D02*
Y255756D01*
X360899Y255100D01*
X361555Y255756D01*
Y257068D01*
X363523D02*
X362211D01*
Y255100D01*
X363523D01*
X362211Y256084D02*
X362867D01*
X364179Y255100D02*
Y257068D01*
X365162D01*
X365491Y256740D01*
Y256084D01*
X365162Y255756D01*
X364179D01*
X364834D02*
X365491Y255100D01*
X366146Y256740D02*
X366474Y257068D01*
X367130D01*
X367458Y256740D01*
Y255428D01*
X367130Y255100D01*
X366474D01*
X366146Y255428D01*
Y256740D01*
X368114Y255100D02*
Y255428D01*
X368442D01*
Y255100D01*
X368114D01*
X369754Y255428D02*
X370082Y255100D01*
X370738D01*
X371066Y255428D01*
Y256740D01*
X370738Y257068D01*
X370082D01*
X369754Y256740D01*
Y256412D01*
X370082Y256084D01*
X371066D01*
D23*
X356839Y294000D02*
G03*
X359339Y294000I1250J0D01*
G01*
X322205Y286405D02*
G03*
X337795Y286405I7795J-5906D01*
G01*
X337122Y292213D02*
Y293787D01*
X339878Y292213D02*
Y293787D01*
X347713Y300378D02*
X349287D01*
X347713Y297622D02*
X349287D01*
X357302Y306122D02*
X358876D01*
X357302Y308878D02*
X358876D01*
X367713Y297622D02*
X369287D01*
X367713Y300378D02*
X369287D01*
X379713Y297622D02*
X381287D01*
X379713Y300378D02*
X381287D01*
X379713Y290122D02*
X381287D01*
X379713Y292878D02*
X381287D01*
X396378Y280213D02*
Y281787D01*
X393622Y280213D02*
Y281787D01*
X378378Y272713D02*
Y274287D01*
X375622Y272713D02*
Y274287D01*
X367713Y267122D02*
X369287D01*
X367713Y269878D02*
X369287D01*
X335937Y312028D02*
X343417D01*
X335937Y302972D02*
X343417D01*
Y312028D01*
X319402Y304547D02*
Y310453D01*
X321370Y312028D02*
X328063D01*
X319402Y304547D02*
X321370Y302972D01*
X319402Y310453D02*
X321370Y312028D01*
X321370Y302972D02*
X328063D01*
X335937Y264528D02*
X343417D01*
X335937Y255472D02*
X343417D01*
Y264528D01*
X319402Y257047D02*
Y262953D01*
X321370Y264528D02*
X328063D01*
X319402Y257047D02*
X321370Y255472D01*
X319402Y262953D02*
X321370Y264528D01*
X321370Y255472D02*
X328063D01*
X372583D02*
X380063D01*
X372583Y264528D02*
X380063D01*
X372583Y255472D02*
Y264528D01*
X396598Y257047D02*
Y262953D01*
X387937Y255472D02*
X394630D01*
Y264528D02*
X396598Y262953D01*
X394630Y255472D02*
X396598Y257047D01*
X387937Y264528D02*
X394630D01*
X372583Y302972D02*
X380063D01*
X372583Y312028D02*
X380063D01*
X372583Y302972D02*
Y312028D01*
X396598Y304547D02*
Y310453D01*
X387937Y302972D02*
X394630D01*
Y312028D02*
X396598Y310453D01*
X394630Y302972D02*
X396598Y304547D01*
X387937Y312028D02*
X394630D01*
X355435Y294000D02*
X356839D01*
X359339D02*
X360735D01*
Y274000D02*
Y294000D01*
X355435Y274000D02*
X360735D01*
X355435D02*
Y294000D01*
X322205Y286405D02*
X337795D01*
X328622Y292213D02*
Y293787D01*
X331378Y292213D02*
Y293787D01*
X357302Y258622D02*
X358876D01*
X357302Y261378D02*
X358876D01*
X347713Y269878D02*
X349287D01*
X347713Y267122D02*
X349287D01*
D24*
X341634Y285815D02*
G03*
X341634Y285815I-492J0D01*
G01*
D25*
X389999Y270724D02*
X389474Y271249D01*
X388425D01*
X387900Y270724D01*
Y268625D01*
X388425Y268100D01*
X389474D01*
X389999Y268625D01*
X391049Y268100D02*
X392098D01*
X391573D01*
Y271249D01*
X391049Y270724D01*
X398700Y313049D02*
Y309900D01*
X400274D01*
X400799Y310425D01*
Y312524D01*
X400274Y313049D01*
X398700D01*
X401849Y309900D02*
X402898D01*
X402373D01*
Y313049D01*
X401849Y312524D01*
X398400Y258349D02*
Y255200D01*
X399974D01*
X400499Y255725D01*
Y257824D01*
X399974Y258349D01*
X398400D01*
X403648Y255200D02*
X401549D01*
X403648Y257299D01*
Y257824D01*
X403123Y258349D01*
X402073D01*
X401549Y257824D01*
X312400Y259149D02*
Y256000D01*
X313974D01*
X314499Y256525D01*
Y258624D01*
X313974Y259149D01*
X312400D01*
X315549Y258624D02*
X316073Y259149D01*
X317123D01*
X317648Y258624D01*
Y258099D01*
X317123Y257574D01*
X316598D01*
X317123D01*
X317648Y257049D01*
Y256525D01*
X317123Y256000D01*
X316073D01*
X315549Y256525D01*
X312500Y313149D02*
Y310000D01*
X314074D01*
X314599Y310525D01*
Y312624D01*
X314074Y313149D01*
X312500D01*
X317223Y310000D02*
Y313149D01*
X315649Y311574D01*
X317748D01*
X323399Y288625D02*
Y290724D01*
X322874Y291249D01*
X321825D01*
X321300Y290724D01*
Y288625D01*
X321825Y288100D01*
X322874D01*
X322350Y289149D02*
X323399Y288100D01*
X322874D02*
X323399Y288625D01*
X324449Y288100D02*
X325498D01*
X324973D01*
Y291249D01*
X324449Y290724D01*
X385900Y294800D02*
Y297949D01*
X387474D01*
X387999Y297424D01*
Y296374D01*
X387474Y295849D01*
X385900D01*
X386949D02*
X387999Y294800D01*
X389049D02*
X390098D01*
X389573D01*
Y297949D01*
X389049Y297424D01*
X380400Y271600D02*
Y274749D01*
X381974D01*
X382499Y274224D01*
Y273174D01*
X381974Y272650D01*
X380400D01*
X381450D02*
X382499Y271600D01*
X385648D02*
X383549D01*
X385648Y273699D01*
Y274224D01*
X385123Y274749D01*
X384073D01*
X383549Y274224D01*
X355200Y263300D02*
Y266449D01*
X356774D01*
X357299Y265924D01*
Y264874D01*
X356774Y264350D01*
X355200D01*
X356249D02*
X357299Y263300D01*
X358349Y265924D02*
X358873Y266449D01*
X359923D01*
X360448Y265924D01*
Y265399D01*
X359923Y264874D01*
X359398D01*
X359923D01*
X360448Y264350D01*
Y263825D01*
X359923Y263300D01*
X358873D01*
X358349Y263825D01*
X355000Y301800D02*
Y304949D01*
X356574D01*
X357099Y304424D01*
Y303374D01*
X356574Y302850D01*
X355000D01*
X356049D02*
X357099Y301800D01*
X359723D02*
Y304949D01*
X358149Y303374D01*
X360248D01*
X336300Y298400D02*
Y301549D01*
X337874D01*
X338399Y301024D01*
Y299974D01*
X337874Y299449D01*
X336300D01*
X337350D02*
X338399Y298400D01*
X341548Y301549D02*
X339449D01*
Y299974D01*
X340498Y300499D01*
X341023D01*
X341548Y299974D01*
Y298925D01*
X341023Y298400D01*
X339973D01*
X339449Y298925D01*
X327500Y298500D02*
Y301649D01*
X329074D01*
X329599Y301124D01*
Y300074D01*
X329074Y299550D01*
X327500D01*
X328550D02*
X329599Y298500D01*
X332748Y301649D02*
X331698Y301124D01*
X330649Y300074D01*
Y299025D01*
X331173Y298500D01*
X332223D01*
X332748Y299025D01*
Y299550D01*
X332223Y300074D01*
X330649D01*
X392800Y286800D02*
Y289949D01*
X394374D01*
X394899Y289424D01*
Y288374D01*
X394374Y287849D01*
X392800D01*
X393849D02*
X394899Y286800D01*
X395949Y289949D02*
X398048D01*
Y289424D01*
X395949Y287325D01*
Y286800D01*
X346300Y301600D02*
Y304749D01*
X347874D01*
X348399Y304224D01*
Y303174D01*
X347874Y302649D01*
X346300D01*
X347350D02*
X348399Y301600D01*
X349449Y304224D02*
X349973Y304749D01*
X351023D01*
X351548Y304224D01*
Y303699D01*
X351023Y303174D01*
X351548Y302649D01*
Y302125D01*
X351023Y301600D01*
X349973D01*
X349449Y302125D01*
Y302649D01*
X349973Y303174D01*
X349449Y303699D01*
Y304224D01*
X349973Y303174D02*
X351023D01*
X362400Y301900D02*
Y305049D01*
X363974D01*
X364499Y304524D01*
Y303474D01*
X363974Y302950D01*
X362400D01*
X363450D02*
X364499Y301900D01*
X365549Y302425D02*
X366073Y301900D01*
X367123D01*
X367648Y302425D01*
Y304524D01*
X367123Y305049D01*
X366073D01*
X365549Y304524D01*
Y303999D01*
X366073Y303474D01*
X367648D01*
X344900Y262500D02*
Y265649D01*
X346474D01*
X346999Y265124D01*
Y264074D01*
X346474Y263549D01*
X344900D01*
X345950D02*
X346999Y262500D01*
X348049D02*
X349098D01*
X348573D01*
Y265649D01*
X348049Y265124D01*
X350672D02*
X351197Y265649D01*
X352247D01*
X352771Y265124D01*
Y263025D01*
X352247Y262500D01*
X351197D01*
X350672Y263025D01*
Y265124D01*
X365500Y271400D02*
Y274549D01*
X367074D01*
X367599Y274024D01*
Y272974D01*
X367074Y272449D01*
X365500D01*
X366549D02*
X367599Y271400D01*
X368649D02*
X369698D01*
X369173D01*
Y274549D01*
X368649Y274024D01*
X371272Y271400D02*
X372322D01*
X371797D01*
Y274549D01*
X371272Y274024D01*
X379500Y285100D02*
Y288249D01*
X381074D01*
X381599Y287724D01*
Y286674D01*
X381074Y286150D01*
X379500D01*
X380550D02*
X381599Y285100D01*
X382649D02*
X383698D01*
X383173D01*
Y288249D01*
X382649Y287724D01*
X387371Y285100D02*
X385272D01*
X387371Y287199D01*
Y287724D01*
X386847Y288249D01*
X385797D01*
X385272Y287724D01*
X355800Y272349D02*
Y269725D01*
X356325Y269200D01*
X357374D01*
X357899Y269725D01*
Y272349D01*
X358949Y269200D02*
X359998D01*
X359473D01*
Y272349D01*
X358949Y271824D01*
M02*
