M48
;Layer_Color=9474304
;FILE_FORMAT=2:5
INCH,LZ
;TYPE=PLATED
T1F00S00C0.01575
T2F00S00C0.03543
%
T01
X034Y02685
X03415Y02785
X0341Y0285
X0324Y0296
X03185Y0297
X0325Y03075
X03702Y03042
X03835Y03006
X03888
X039089Y03075
X03903Y02773
X0379559Y0281559
X0376Y02855
X03675Y0264
X0390779Y026
T02
X03125Y0264
Y0274
Y0284
Y0294
Y0304
X0325Y02805
X033
X0335
X04035Y0284
Y0274
Y0264
Y0294
Y0304
M30
