%FSLAX25Y25*%
%MOIN*%
G70*
G01*
G75*
G04 Layer_Color=8421504*
%ADD10R,0.03543X0.02756*%
%ADD11R,0.02756X0.03543*%
%ADD12R,0.03543X0.03150*%
%ADD13R,0.05906X0.05906*%
%ADD14R,0.08858X0.01969*%
%ADD15O,0.08858X0.01969*%
%ADD16C,0.01969*%
%ADD17C,0.00394*%
%ADD18R,0.05906X0.05906*%
%ADD19C,0.05906*%
%ADD20O,0.03937X0.07874*%
%ADD21O,0.03937X0.07874*%
%ADD22C,0.03150*%
%ADD23C,0.00787*%
%ADD24C,0.00984*%
%ADD25C,0.00591*%
D10*
X338500Y290047D02*
D03*
Y295953D02*
D03*
X395000Y283953D02*
D03*
Y278047D02*
D03*
X377000Y276453D02*
D03*
Y270547D02*
D03*
X330000Y290047D02*
D03*
Y295953D02*
D03*
D11*
X345547Y299000D02*
D03*
X351453D02*
D03*
X361042Y307500D02*
D03*
X355136D02*
D03*
X371453Y299000D02*
D03*
X365547D02*
D03*
X383453D02*
D03*
X377547D02*
D03*
X383453Y291500D02*
D03*
X377547D02*
D03*
X371453Y268500D02*
D03*
X365547D02*
D03*
X361042Y260000D02*
D03*
X355136D02*
D03*
X345547Y268500D02*
D03*
X351453D02*
D03*
D12*
X395000Y266744D02*
D03*
Y272256D02*
D03*
D13*
X325110Y307500D02*
D03*
X338890D02*
D03*
X325110Y260000D02*
D03*
X338890D02*
D03*
X390890D02*
D03*
X377110D02*
D03*
X390890Y307500D02*
D03*
X377110D02*
D03*
D14*
X348935Y291500D02*
D03*
D15*
Y286500D02*
D03*
Y281500D02*
D03*
Y276500D02*
D03*
X367243Y291500D02*
D03*
Y286500D02*
D03*
Y281500D02*
D03*
Y276500D02*
D03*
M02*
