%FSLAX25Y25*%
%MOIN*%
G70*
G01*
G75*
%ADD10R,0.05906X0.05906*%
%ADD11C,0.05906*%
%ADD12R,0.05906X0.05906*%
%ADD13O,0.17716X0.07874*%
%ADD14O,0.15748X0.07874*%
%ADD15O,0.07874X0.15748*%
%ADD16C,0.05906*%
%ADD17C,0.03150*%
%ADD18C,0.01969*%
%ADD19O,0.05906X0.09055*%
%ADD20R,0.05906X0.12598*%
%ADD21R,0.07874X0.03937*%
%ADD22R,0.03543X0.03150*%
%ADD23R,0.06102X0.06102*%
%ADD24O,0.01575X0.06299*%
%ADD25R,0.01575X0.06299*%
%ADD26R,0.11811X0.05906*%
%ADD27R,0.04724X0.05512*%
%ADD28R,0.05512X0.04724*%
%ADD29C,0.01181*%
%ADD30C,0.03937*%
%ADD31C,0.02362*%
%ADD32C,0.03150*%
%ADD33C,0.01575*%
%ADD34C,0.01000*%
%ADD35C,0.00787*%
%ADD36C,0.00800*%
%ADD37C,0.00591*%
D34*
X471199Y328198D02*
X469199D01*
X470199D01*
Y323200D01*
X469199Y322200D01*
X468200D01*
X467200Y323200D01*
X473198Y322200D02*
X475197D01*
X474198D01*
Y328198D01*
X473198Y327198D01*
X340000Y236100D02*
Y242098D01*
X342999D01*
X343999Y241098D01*
Y239099D01*
X342999Y238099D01*
X340000D01*
X345998Y236100D02*
X347997D01*
X346998D01*
Y242098D01*
X345998Y241098D01*
X476800Y204500D02*
Y210498D01*
X479799D01*
X480799Y209498D01*
Y207499D01*
X479799Y206499D01*
X476800D01*
X486797Y204500D02*
X482798D01*
X486797Y208499D01*
Y209498D01*
X485797Y210498D01*
X483798D01*
X482798Y209498D01*
X403700Y294300D02*
Y300298D01*
X406699D01*
X407699Y299298D01*
Y297299D01*
X406699Y296299D01*
X403700D01*
X409698Y299298D02*
X410698Y300298D01*
X412697D01*
X413697Y299298D01*
Y298299D01*
X412697Y297299D01*
X411697D01*
X412697D01*
X413697Y296299D01*
Y295300D01*
X412697Y294300D01*
X410698D01*
X409698Y295300D01*
X404400Y274600D02*
Y280598D01*
X407399D01*
X408399Y279598D01*
Y277599D01*
X407399Y276599D01*
X404400D01*
X413397Y274600D02*
Y280598D01*
X410398Y277599D01*
X414397D01*
X364500Y227500D02*
Y233498D01*
X367499D01*
X368499Y232498D01*
Y230499D01*
X367499Y229499D01*
X364500D01*
X374497Y233498D02*
X370498D01*
Y230499D01*
X372497Y231499D01*
X373497D01*
X374497Y230499D01*
Y228500D01*
X373497Y227500D01*
X371498D01*
X370498Y228500D01*
X466000Y254698D02*
Y248700D01*
X469999D01*
X475997Y254698D02*
X471998D01*
Y248700D01*
X475997D01*
X471998Y251699D02*
X473997D01*
X477996Y254698D02*
Y248700D01*
X480995D01*
X481995Y249700D01*
Y253698D01*
X480995Y254698D01*
X477996D01*
X483994Y248700D02*
X485993D01*
X484994D01*
Y254698D01*
X483994Y253698D01*
X357400Y335898D02*
Y329900D01*
X361399D01*
X367397Y335898D02*
X363398D01*
Y329900D01*
X367397D01*
X363398Y332899D02*
X365397D01*
X369396Y335898D02*
Y329900D01*
X372395D01*
X373395Y330900D01*
Y334898D01*
X372395Y335898D01*
X369396D01*
X379393Y329900D02*
X375394D01*
X379393Y333899D01*
Y334898D01*
X378393Y335898D01*
X376394D01*
X375394Y334898D01*
X340700Y292398D02*
Y286400D01*
X344699D01*
X350697Y292398D02*
X346698D01*
Y286400D01*
X350697D01*
X346698Y289399D02*
X348697D01*
X352696Y292398D02*
Y286400D01*
X355695D01*
X356695Y287400D01*
Y291398D01*
X355695Y292398D01*
X352696D01*
X358694Y291398D02*
X359694Y292398D01*
X361693D01*
X362693Y291398D01*
Y290399D01*
X361693Y289399D01*
X360694D01*
X361693D01*
X362693Y288399D01*
Y287400D01*
X361693Y286400D01*
X359694D01*
X358694Y287400D01*
X388656Y238499D02*
Y233928D01*
X388371Y233071D01*
X388085Y232786D01*
X387514Y232500D01*
X386943D01*
X386371Y232786D01*
X386086Y233071D01*
X385800Y233928D01*
Y234500D01*
X392199Y238499D02*
Y232500D01*
X390199Y238499D02*
X394198D01*
X399483Y232500D02*
X397198Y238499D01*
X394912Y232500D01*
X395769Y234500D02*
X398626D01*
X405167Y237070D02*
X404882Y237642D01*
X404310Y238213D01*
X403739Y238499D01*
X402596D01*
X402025Y238213D01*
X401454Y237642D01*
X401168Y237070D01*
X400882Y236213D01*
Y234785D01*
X401168Y233928D01*
X401454Y233357D01*
X402025Y232786D01*
X402596Y232500D01*
X403739D01*
X404310Y232786D01*
X404882Y233357D01*
X405167Y233928D01*
Y234785D01*
X403739D02*
X405167D01*
X406824Y237070D02*
Y237356D01*
X407110Y237927D01*
X407395Y238213D01*
X407967Y238499D01*
X409109D01*
X409681Y238213D01*
X409966Y237927D01*
X410252Y237356D01*
Y236785D01*
X409966Y236213D01*
X409395Y235356D01*
X406538Y232500D01*
X410538D01*
X413594Y238499D02*
X412737Y238213D01*
X412166Y237356D01*
X411880Y235928D01*
Y235071D01*
X412166Y233643D01*
X412737Y232786D01*
X413594Y232500D01*
X414165D01*
X415022Y232786D01*
X415594Y233643D01*
X415879Y235071D01*
Y235928D01*
X415594Y237356D01*
X415022Y238213D01*
X414165Y238499D01*
X413594D01*
X417222Y235071D02*
X422364D01*
X424135Y237356D02*
X424706Y237642D01*
X425563Y238499D01*
Y232500D01*
X430248Y238499D02*
X429391Y238213D01*
X428819Y237356D01*
X428534Y235928D01*
Y235071D01*
X428819Y233643D01*
X429391Y232786D01*
X430248Y232500D01*
X430819D01*
X431676Y232786D01*
X432247Y233643D01*
X432533Y235071D01*
Y235928D01*
X432247Y237356D01*
X431676Y238213D01*
X430819Y238499D01*
X430248D01*
X438589D02*
X440874Y232500D01*
X443159Y238499D02*
X440874Y232500D01*
X443930Y234785D02*
X447358D01*
Y235356D01*
X447073Y235928D01*
X446787Y236213D01*
X446216Y236499D01*
X445359D01*
X444787Y236213D01*
X444216Y235642D01*
X443930Y234785D01*
Y234214D01*
X444216Y233357D01*
X444787Y232786D01*
X445359Y232500D01*
X446216D01*
X446787Y232786D01*
X447358Y233357D01*
X448644Y236499D02*
Y232500D01*
Y234785D02*
X448929Y235642D01*
X449501Y236213D01*
X450072Y236499D01*
X450929D01*
X451472Y237356D02*
X452043Y237642D01*
X452900Y238499D01*
Y232500D01*
X456156Y233071D02*
X455871Y232786D01*
X456156Y232500D01*
X456442Y232786D01*
X456156Y233071D01*
X459470Y238499D02*
X458613Y238213D01*
X458042Y237356D01*
X457756Y235928D01*
Y235071D01*
X458042Y233643D01*
X458613Y232786D01*
X459470Y232500D01*
X460041D01*
X460898Y232786D01*
X461470Y233643D01*
X461755Y235071D01*
Y235928D01*
X461470Y237356D01*
X460898Y238213D01*
X460041Y238499D01*
X459470D01*
X342600Y194500D02*
Y200498D01*
X346599Y194500D01*
Y200498D01*
X348598Y194500D02*
X350597D01*
X349598D01*
Y198499D01*
X348598D01*
X353596D02*
Y195500D01*
X354596Y194500D01*
X357595D01*
Y198499D01*
X359594Y194500D02*
Y195500D01*
X360594D01*
Y194500D01*
X359594D01*
X364593D02*
X366592D01*
X365593D01*
Y200498D01*
X364593Y199498D01*
X373590Y200498D02*
X369591D01*
Y197499D01*
X371591Y198499D01*
X372590D01*
X373590Y197499D01*
Y195500D01*
X372590Y194500D01*
X370591D01*
X369591Y195500D01*
X375589Y199498D02*
X376589Y200498D01*
X378588D01*
X379588Y199498D01*
Y195500D01*
X378588Y194500D01*
X376589D01*
X375589Y195500D01*
Y199498D01*
X381587Y195500D02*
X382587Y194500D01*
X384586D01*
X385586Y195500D01*
Y199498D01*
X384586Y200498D01*
X382587D01*
X381587Y199498D01*
Y198499D01*
X382587Y197499D01*
X385586D01*
X387585Y194500D02*
X389585D01*
X388585D01*
Y200498D01*
X387585Y199498D01*
X392584Y200498D02*
X396583D01*
Y199498D01*
X392584Y195500D01*
Y194500D01*
D35*
X458500Y253000D02*
Y273000D01*
X358500Y253000D02*
X458500D01*
X358500D02*
Y273000D01*
X458500D01*
Y204500D02*
Y224500D01*
X358500Y204500D02*
X458500D01*
X358500D02*
Y224500D01*
X458500D01*
X337000Y216500D02*
Y309000D01*
X317000Y216500D02*
Y309000D01*
Y209000D02*
Y216500D01*
Y209000D02*
X337000D01*
Y216500D01*
X317000Y309000D02*
X337000D01*
X458500Y301500D02*
Y321500D01*
X358500Y301500D02*
X458500D01*
X358500D02*
Y321500D01*
X458500D01*
X478284Y295323D02*
Y328000D01*
Y270520D02*
Y278000D01*
Y270520D02*
X487339D01*
X478284Y328000D02*
X513717D01*
Y270520D02*
Y328000D01*
X504661Y270520D02*
X513717Y270520D01*
X492000Y203000D02*
X512000D01*
X492000Y253000D02*
X512000D01*
Y203000D02*
Y253000D01*
X492000Y203000D02*
Y253000D01*
X465400Y257200D02*
Y267200D01*
X485400D01*
Y257200D02*
Y267200D01*
X465400Y257200D02*
X485400D01*
X344500Y310900D02*
X354500D01*
X344500D02*
Y330900D01*
X354500D01*
Y310900D02*
Y330900D01*
X344500Y283100D02*
X354500D01*
Y263100D02*
Y283100D01*
X344500Y263100D02*
X354500D01*
X344500D02*
Y283100D01*
D36*
X355500Y254000D02*
X357166D01*
X356333D01*
Y258998D01*
X355500Y258165D01*
X360100Y274600D02*
X361766D01*
X360933D01*
Y279598D01*
X360100Y278765D01*
X364265Y274600D02*
X365931D01*
X365098D01*
Y279598D01*
X364265Y278765D01*
X449000Y246000D02*
X450666D01*
X449833D01*
Y250998D01*
X449000Y250165D01*
X453165D02*
X453998Y250998D01*
X455664D01*
X456498Y250165D01*
Y246833D01*
X455664Y246000D01*
X453998D01*
X453165Y246833D01*
Y250165D01*
X452332Y275500D02*
X449000D01*
X452332Y278832D01*
Y279665D01*
X451499Y280498D01*
X449833D01*
X449000Y279665D01*
X453998D02*
X454831Y280498D01*
X456498D01*
X457331Y279665D01*
Y276333D01*
X456498Y275500D01*
X454831D01*
X453998Y276333D01*
Y279665D01*
X355500Y205500D02*
X357166D01*
X356333D01*
Y210498D01*
X355500Y209665D01*
X351500Y217500D02*
X353166D01*
X352333D01*
Y222498D01*
X351500Y221665D01*
X355500Y217500D02*
X357166D01*
X356333D01*
Y222498D01*
X355500Y221665D01*
X459500Y207500D02*
X461166D01*
X460333D01*
Y212498D01*
X459500Y211665D01*
X463665D02*
X464498Y212498D01*
X466164D01*
X466998Y211665D01*
Y208333D01*
X466164Y207500D01*
X464498D01*
X463665Y208333D01*
Y211665D01*
X462832Y217500D02*
X459500D01*
X462832Y220832D01*
Y221665D01*
X461999Y222498D01*
X460333D01*
X459500Y221665D01*
X464498D02*
X465331Y222498D01*
X466998D01*
X467831Y221665D01*
Y218333D01*
X466998Y217500D01*
X465331D01*
X464498Y218333D01*
Y221665D01*
X324000Y207332D02*
Y204000D01*
X320668Y207332D01*
X319835D01*
X319002Y206499D01*
Y204833D01*
X319835Y204000D01*
X334000D02*
Y205666D01*
Y204833D01*
X329002D01*
X329835Y204000D01*
X334000Y310000D02*
Y311666D01*
Y310833D01*
X329002D01*
X329835Y310000D01*
X333167Y314165D02*
X334000Y314998D01*
Y316665D01*
X333167Y317498D01*
X329835D01*
X329002Y316665D01*
Y314998D01*
X329835Y314165D01*
X330668D01*
X331501Y314998D01*
Y317498D01*
X324000Y313332D02*
Y310000D01*
X320668Y313332D01*
X319835D01*
X319002Y312499D01*
Y310833D01*
X319835Y310000D01*
Y314998D02*
X319002Y315831D01*
Y317498D01*
X319835Y318331D01*
X323167D01*
X324000Y317498D01*
Y315831D01*
X323167Y314998D01*
X319835D01*
X355500Y302500D02*
X357166D01*
X356333D01*
Y307498D01*
X355500Y306665D01*
X359000Y323000D02*
X360666D01*
X359833D01*
Y327998D01*
X359000Y327165D01*
X363165Y323000D02*
X364831D01*
X363998D01*
Y327998D01*
X363165Y327165D01*
X459500Y304500D02*
X461166D01*
X460333D01*
Y309498D01*
X459500Y308665D01*
X463665D02*
X464498Y309498D01*
X466164D01*
X466998Y308665D01*
Y305333D01*
X466164Y304500D01*
X464498D01*
X463665Y305333D01*
Y308665D01*
X462832Y314500D02*
X459500D01*
X462832Y317832D01*
Y318665D01*
X461999Y319498D01*
X460333D01*
X459500Y318665D01*
X464498D02*
X465331Y319498D01*
X466998D01*
X467831Y318665D01*
Y315333D01*
X466998Y314500D01*
X465331D01*
X464498Y315333D01*
Y318665D01*
X505000Y254668D02*
Y258000D01*
X508332Y254668D01*
X509165D01*
X509998Y255501D01*
Y257167D01*
X509165Y258000D01*
X495000Y256000D02*
Y254334D01*
Y255167D01*
X499998D01*
X499165Y256000D01*
X495833Y202000D02*
X495000Y201167D01*
Y199501D01*
X495833Y198668D01*
X499165D01*
X499998Y199501D01*
Y201167D01*
X499165Y202000D01*
X498332D01*
X497499Y201167D01*
Y198668D01*
X505000Y202000D02*
Y200334D01*
Y201167D01*
X509998D01*
X509165Y202000D01*
Y197835D02*
X509998Y197002D01*
Y195335D01*
X509165Y194502D01*
X505833D01*
X505000Y195335D01*
Y197002D01*
X505833Y197835D01*
X509165D01*
D37*
X489849Y262209D02*
X486831D01*
X488340Y260700D02*
Y263717D01*
X349491Y335349D02*
Y332331D01*
X351000Y333840D02*
X347983D01*
X349509Y258651D02*
Y261669D01*
X348000Y260160D02*
X351017D01*
M02*
