%FSLAX25Y25*%
%MOIN*%
G70*
G01*
G75*
G04 Layer_Color=8388736*
%ADD10R,0.05906X0.05906*%
%ADD11C,0.05906*%
%ADD12R,0.05906X0.05906*%
%ADD13O,0.17716X0.07874*%
%ADD14O,0.15748X0.07874*%
%ADD15O,0.07874X0.15748*%
%ADD16C,0.05906*%
%ADD17C,0.03150*%
%ADD18C,0.01969*%
%ADD19O,0.05906X0.09055*%
%ADD20R,0.05906X0.12598*%
%ADD21R,0.07874X0.03937*%
%ADD22R,0.03543X0.03150*%
%ADD23R,0.06102X0.06102*%
%ADD24O,0.01575X0.06299*%
%ADD25R,0.01575X0.06299*%
%ADD26R,0.11811X0.05906*%
%ADD27R,0.04724X0.05512*%
%ADD28R,0.05512X0.04724*%
%ADD29C,0.01181*%
%ADD30C,0.03937*%
%ADD31C,0.02362*%
%ADD32C,0.03150*%
%ADD33C,0.01575*%
%ADD34C,0.01000*%
%ADD35C,0.00787*%
%ADD36C,0.00800*%
%ADD37C,0.00591*%
%ADD38R,0.06706X0.06706*%
%ADD39C,0.06706*%
%ADD40R,0.06706X0.06706*%
%ADD41O,0.18517X0.08674*%
%ADD42O,0.16548X0.08674*%
%ADD43O,0.08674X0.16548*%
%ADD44C,0.06706*%
%ADD45C,0.03950*%
%ADD46C,0.02769*%
%ADD47O,0.06706X0.09855*%
D38*
X363500Y258000D02*
D03*
Y209500D02*
D03*
Y306500D02*
D03*
X480400Y262200D02*
D03*
D39*
X373500Y258000D02*
D03*
X383500D02*
D03*
X393500D02*
D03*
X403500D02*
D03*
X413500D02*
D03*
X423500D02*
D03*
X433500D02*
D03*
X443500D02*
D03*
X453500D02*
D03*
X363500Y268000D02*
D03*
X373500D02*
D03*
X383500D02*
D03*
X393500D02*
D03*
X403500D02*
D03*
X413500D02*
D03*
X423500D02*
D03*
X433500D02*
D03*
X443500D02*
D03*
X453500D02*
D03*
X373500Y209500D02*
D03*
X383500D02*
D03*
X393500D02*
D03*
X403500D02*
D03*
X413500D02*
D03*
X423500D02*
D03*
X433500D02*
D03*
X443500D02*
D03*
X453500D02*
D03*
X363500Y219500D02*
D03*
X373500D02*
D03*
X383500D02*
D03*
X393500D02*
D03*
X403500D02*
D03*
X413500D02*
D03*
X423500D02*
D03*
X433500D02*
D03*
X443500D02*
D03*
X453500D02*
D03*
X322000Y304000D02*
D03*
X332000D02*
D03*
X322000Y294000D02*
D03*
X332000D02*
D03*
X322000Y284000D02*
D03*
X332000D02*
D03*
X322000Y274000D02*
D03*
X332000D02*
D03*
X322000Y264000D02*
D03*
X332000D02*
D03*
X322000Y254000D02*
D03*
X332000D02*
D03*
X322000Y244000D02*
D03*
X332000D02*
D03*
X322000Y234000D02*
D03*
X332000D02*
D03*
X322000Y224000D02*
D03*
X332000D02*
D03*
X322000Y214000D02*
D03*
X373500Y306500D02*
D03*
X383500D02*
D03*
X393500D02*
D03*
X403500D02*
D03*
X413500D02*
D03*
X423500D02*
D03*
X433500D02*
D03*
X443500D02*
D03*
X453500D02*
D03*
X363500Y316500D02*
D03*
X373500D02*
D03*
X383500D02*
D03*
X393500D02*
D03*
X403500D02*
D03*
X413500D02*
D03*
X423500D02*
D03*
X433500D02*
D03*
X443500D02*
D03*
X453500D02*
D03*
X492063Y298472D02*
D03*
X499937D02*
D03*
X476315Y282724D02*
D03*
Y290598D02*
D03*
X507000Y248000D02*
D03*
X497000Y238000D02*
D03*
X507000D02*
D03*
X497000Y228000D02*
D03*
X507000D02*
D03*
X497000Y218000D02*
D03*
X507000D02*
D03*
X497000Y208000D02*
D03*
X507000D02*
D03*
X470400Y262200D02*
D03*
X349500Y315900D02*
D03*
Y278100D02*
D03*
D40*
X332000Y214000D02*
D03*
X497000Y248000D02*
D03*
X349500Y325900D02*
D03*
Y268100D02*
D03*
D41*
X496000Y274063D02*
D03*
D42*
Y298472D02*
D03*
D43*
X476315Y286661D02*
D03*
D44*
X500921Y274063D02*
D03*
X491079D02*
D03*
D45*
X313493Y328695D02*
D03*
Y325743D02*
D03*
X335343Y328695D02*
D03*
Y325743D02*
D03*
D46*
X332292Y318558D02*
D03*
X316544D02*
D03*
D47*
X313493Y327120D02*
D03*
X335343D02*
D03*
M02*
