%FSLAX25Y25*%
%MOIN*%
G70*
G01*
G75*
G04 Layer_Color=128*
%ADD10R,0.05906X0.05906*%
%ADD11C,0.05906*%
%ADD12R,0.05906X0.05906*%
%ADD13O,0.17716X0.07874*%
%ADD14O,0.15748X0.07874*%
%ADD15O,0.07874X0.15748*%
%ADD16C,0.05906*%
%ADD17C,0.03150*%
%ADD18C,0.01969*%
%ADD19O,0.05906X0.09055*%
%ADD20R,0.05906X0.12598*%
%ADD21R,0.07874X0.03937*%
%ADD22R,0.03543X0.03150*%
%ADD23R,0.06102X0.06102*%
%ADD24O,0.01575X0.06299*%
%ADD25R,0.01575X0.06299*%
%ADD26R,0.11811X0.05906*%
%ADD27R,0.04724X0.05512*%
%ADD28R,0.05512X0.04724*%
%ADD29C,0.01181*%
%ADD30C,0.03937*%
%ADD31C,0.02362*%
%ADD32C,0.03150*%
%ADD33C,0.01575*%
%ADD34C,0.01000*%
%ADD35C,0.00787*%
%ADD36C,0.00800*%
%ADD37C,0.00591*%
%ADD38R,0.06706X0.06706*%
%ADD39C,0.06706*%
%ADD40R,0.06706X0.06706*%
%ADD41O,0.18517X0.08674*%
%ADD42O,0.16548X0.08674*%
%ADD43O,0.08674X0.16548*%
%ADD44C,0.06706*%
%ADD45C,0.03950*%
%ADD46C,0.02769*%
%ADD47O,0.06706X0.09855*%
%ADD48R,0.06706X0.13398*%
%ADD49R,0.08674X0.04737*%
%ADD50R,0.04343X0.03950*%
%ADD51R,0.06902X0.06902*%
%ADD52O,0.02375X0.07099*%
%ADD53R,0.02375X0.07099*%
%ADD54R,0.12611X0.06706*%
%ADD55R,0.05524X0.06312*%
%ADD56R,0.06312X0.05524*%
D20*
X397200Y287300D02*
D03*
X421600D02*
D03*
D21*
X374200Y276276D02*
D03*
Y287300D02*
D03*
Y298324D02*
D03*
X444600D02*
D03*
Y287300D02*
D03*
Y276276D02*
D03*
D22*
X360800Y290830D02*
D03*
Y296342D02*
D03*
Y276430D02*
D03*
Y281942D02*
D03*
X456100D02*
D03*
Y276430D02*
D03*
Y296342D02*
D03*
Y290830D02*
D03*
D23*
X311500Y316306D02*
D03*
X337300D02*
D03*
D24*
X329536Y315900D02*
D03*
X326977D02*
D03*
X321859D02*
D03*
X324418D02*
D03*
D25*
X319300D02*
D03*
D26*
X324418Y327711D02*
D03*
D27*
X358557Y326100D02*
D03*
X365643D02*
D03*
X489257Y264500D02*
D03*
X496343D02*
D03*
D28*
X353400Y258843D02*
D03*
Y251757D02*
D03*
M02*
