%FSLAX25Y25*%
%MOIN*%
G70*
G01*
G75*
G04 Layer_Color=32768*
%ADD10R,0.05906X0.05906*%
%ADD11C,0.05906*%
%ADD12R,0.05906X0.05906*%
%ADD13O,0.17716X0.07874*%
%ADD14O,0.15748X0.07874*%
%ADD15O,0.07874X0.15748*%
%ADD16C,0.05906*%
%ADD17C,0.03150*%
%ADD18C,0.01969*%
%ADD19O,0.05906X0.09055*%
%ADD20R,0.05906X0.12598*%
%ADD21R,0.07874X0.03937*%
%ADD22R,0.03543X0.03150*%
%ADD23R,0.06102X0.06102*%
%ADD24O,0.01575X0.06299*%
%ADD25R,0.01575X0.06299*%
%ADD26R,0.11811X0.05906*%
%ADD27R,0.04724X0.05512*%
%ADD28R,0.05512X0.04724*%
%ADD29C,0.01181*%
%ADD30C,0.03937*%
%ADD31C,0.02362*%
%ADD32C,0.03150*%
%ADD33C,0.01575*%
%ADD34C,0.01000*%
%ADD35C,0.00787*%
%ADD36C,0.00800*%
%ADD37C,0.00591*%
%ADD38R,0.06706X0.06706*%
%ADD39C,0.06706*%
%ADD40R,0.06706X0.06706*%
%ADD41O,0.18517X0.08674*%
%ADD42O,0.16548X0.08674*%
%ADD43O,0.08674X0.16548*%
%ADD44C,0.06706*%
%ADD45C,0.03950*%
%ADD46C,0.02769*%
%ADD47O,0.06706X0.09855*%
%ADD48R,0.06706X0.13398*%
%ADD49R,0.08674X0.04737*%
%ADD50R,0.04343X0.03950*%
%ADD51R,0.06902X0.06902*%
%ADD52O,0.02375X0.07099*%
%ADD53R,0.02375X0.07099*%
%ADD54R,0.12611X0.06706*%
%ADD55R,0.05524X0.06312*%
%ADD56R,0.06312X0.05524*%
%ADD57C,0.07874*%
%ADD58C,0.07937*%
%ADD59C,0.00394*%
D59*
X358635Y288861D02*
X362965D01*
X358635Y298310D02*
X362965D01*
Y288861D02*
Y298310D01*
X358635Y288861D02*
Y298310D01*
X360800Y291716D02*
Y295456D01*
X358930Y293586D02*
X362670D01*
X358635Y274461D02*
X362965D01*
X358635Y283910D02*
X362965D01*
Y274461D02*
Y283910D01*
X358635Y274461D02*
Y283910D01*
X360800Y277316D02*
Y281056D01*
X358930Y279186D02*
X362670D01*
X453935Y283910D02*
X458265D01*
X453935Y274461D02*
X458265D01*
X453935D02*
Y283910D01*
X458265Y274461D02*
Y283910D01*
X456100Y277316D02*
Y281056D01*
X454230Y279186D02*
X457970D01*
X453935Y298310D02*
X458265D01*
X453935Y288861D02*
X458265D01*
X453935D02*
Y298310D01*
X458265Y288861D02*
Y298310D01*
X456100Y291716D02*
Y295456D01*
X454230Y293586D02*
X457970D01*
X362100Y324131D02*
Y328068D01*
X360132Y326100D02*
X364069D01*
X355210Y322360D02*
X368990D01*
X355210Y329840D02*
X368990D01*
X355210Y322360D02*
Y329840D01*
X368990Y322360D02*
Y329840D01*
X351431Y255300D02*
X355368D01*
X353400Y253331D02*
Y257269D01*
X349660Y248410D02*
Y262190D01*
X357140Y248410D02*
Y262190D01*
X349660D02*
X357140D01*
X349660Y248410D02*
X357140D01*
X492800Y262531D02*
Y266469D01*
X490832Y264500D02*
X494768D01*
X485910Y260760D02*
X499690D01*
X485910Y268240D02*
X499690D01*
X485910Y260760D02*
Y268240D01*
X499690Y260760D02*
Y268240D01*
M02*
